<svg width="58" height="72" viewBox="0 0 58 72" fill="none" xmlns="http://www.w3.org/2000/svg">
<path fill-rule="evenodd" clip-rule="evenodd" d="M28.6667 68.2498L31.2037 70.7797C30.8707 71.1139 30.4751 71.3791 30.0394 71.5601C29.6037 71.7411 29.1366 71.8342 28.6649 71.8342C28.1931 71.8342 27.726 71.7411 27.2903 71.5601C26.8547 71.3791 26.459 71.1139 26.1261 70.7797L26.1046 70.7546L26.0437 70.6937L25.8215 70.4679C24.5583 69.1667 23.316 67.8455 22.0948 66.5048C19.0289 63.1453 16.0932 59.6693 13.2942 56.0844C10.0978 51.9636 6.82983 47.3053 4.34658 42.7043C1.91708 38.1928 0 33.3052 0 28.8332C0 12.5684 12.8713 0.166504 28.6667 0.166504C44.462 0.166504 57.3333 12.5684 57.3333 28.8332C57.3333 33.3052 55.4163 38.1928 52.9868 42.7007C50.5035 47.3088 47.2391 51.9636 44.0392 56.0844C40.1239 61.0998 35.9421 65.9012 31.5118 70.4679L31.2897 70.6937L31.2287 70.7546L31.2072 70.7761L28.6667 68.2498ZM28.6667 39.5832C31.5177 39.5832 34.252 38.4506 36.2681 36.4346C38.2841 34.4186 39.4167 31.6842 39.4167 28.8332C39.4167 25.9821 38.2841 23.2478 36.2681 21.2318C34.252 19.2158 31.5177 18.0832 28.6667 18.0832C25.8156 18.0832 23.0813 19.2158 21.0653 21.2318C19.0493 23.2478 17.9167 25.9821 17.9167 28.8332C17.9167 31.6842 19.0493 34.4186 21.0653 36.4346C23.0813 38.4506 25.8156 39.5832 28.6667 39.5832Z" fill="#68D3FD"/>
<circle cx="29.4981" cy="29.4981" r="17.4981" fill="#68D3FD"/>
<path d="M28.7241 17.072C30.1641 17.072 31.4041 17.336 32.4441 17.864C33.5001 18.392 34.3081 19.12 34.8681 20.048C35.4281 20.976 35.7081 22.032 35.7081 23.216C35.7081 23.92 35.5721 24.608 35.3001 25.28C35.0441 25.936 34.5961 26.688 33.9561 27.536C33.3321 28.368 32.4441 29.376 31.2921 30.56L28.4841 33.464H36.0921V37.16H22.1001V34.664L28.5081 28.064C29.6121 26.928 30.3721 26 30.7881 25.28C31.2041 24.544 31.4121 23.872 31.4121 23.264C31.4121 22.512 31.1881 21.928 30.7401 21.512C30.3081 21.08 29.6361 20.864 28.7241 20.864C27.8761 20.864 27.2041 21.152 26.7081 21.728C26.2281 22.304 25.9881 22.992 25.9881 23.792H21.6921C21.6921 22.528 21.9881 21.384 22.5801 20.36C23.1881 19.336 24.0201 18.536 25.0761 17.96C26.1481 17.368 27.3641 17.072 28.7241 17.072Z" fill="white"/>
</svg>
