<svg width="58" height="73" viewBox="0 0 58 73" fill="none" xmlns="http://www.w3.org/2000/svg">
<path d="M28.0575 69.5466C27.8834 69.4743 27.7238 69.3715 27.5861 69.2433L27.5731 69.2282L27.5188 69.1738L27.4692 69.1243L27.4578 69.1129L27.2565 68.9083C27.2551 68.9068 27.2536 68.9053 27.2521 68.9038C26.0053 67.6193 24.7789 66.315 23.5735 64.9915L23.5721 64.9901C20.5414 61.6692 17.6394 58.2331 14.8724 54.6895C11.7116 50.6143 8.51701 46.0538 6.10684 41.5883C3.72192 37.1594 2 32.6314 2 28.6667C2 13.5279 13.9544 2 28.6667 2C43.3789 2 55.3333 13.5279 55.3333 28.6667C55.3333 32.6317 53.6111 37.1602 51.2262 41.5853L51.2261 41.5854C48.816 46.0579 45.6248 50.6148 42.4608 54.6896C38.5916 59.6458 34.4591 64.3908 30.0811 68.9039C30.0795 68.9056 30.0779 68.9072 30.0763 68.9088L29.9247 69.0628L29.1403 69.5946C28.9867 69.643 28.8264 69.6677 28.6649 69.6677C28.4564 69.6677 28.25 69.6265 28.0575 69.5466ZM28.6667 41.4167C32.0482 41.4167 35.2912 40.0734 37.6823 37.6823C40.0734 35.2912 41.4167 32.0482 41.4167 28.6667C41.4167 25.2852 40.0734 22.0421 37.6823 19.6511C35.2912 17.26 32.0482 15.9167 28.6667 15.9167C25.2852 15.9167 22.0421 17.26 19.6511 19.6511C17.26 22.0421 15.9167 25.2852 15.9167 28.6667C15.9167 32.0482 17.26 35.2912 19.6511 37.6823C22.0421 40.0734 25.2852 41.4167 28.6667 41.4167Z" fill="white" stroke="#68D3FD" stroke-width="4"/>
<circle cx="29.4981" cy="29.3316" r="17.4981" fill="white"/>
<path d="M28.9167 37.4495C26.8207 37.4495 25.1407 36.8975 23.8767 35.7935C22.6287 34.6895 21.9247 33.1855 21.7647 31.2815H26.0607C26.2367 32.9295 27.1887 33.7535 28.9167 33.7535C29.7967 33.7535 30.4927 33.4655 31.0047 32.8895C31.5167 32.2975 31.7727 31.5455 31.7727 30.6335C31.7727 29.7055 31.5087 28.9615 30.9807 28.4015C30.4687 27.8255 29.7567 27.5375 28.8447 27.5375C27.6447 27.5375 26.7247 27.9775 26.0847 28.8575H22.1247L22.7007 17.4335H35.0607V21.1535H26.6607L26.4447 24.8255C27.3567 24.2815 28.4047 24.0095 29.5887 24.0095C30.8687 24.0095 31.9887 24.2735 32.9487 24.8015C33.9247 25.3295 34.6767 26.0975 35.2047 27.1055C35.7487 28.0975 36.0207 29.2735 36.0207 30.6335C36.0207 31.9775 35.7087 33.1695 35.0847 34.2095C34.4767 35.2335 33.6287 36.0255 32.5407 36.5855C31.4687 37.1615 30.2607 37.4495 28.9167 37.4495Z" fill="#68D3FD"/>
</svg>
