<svg width="58" height="73" viewBox="0 0 58 73" fill="none" xmlns="http://www.w3.org/2000/svg">
<path d="M28.0575 69.5466C27.8834 69.4743 27.7238 69.3715 27.5861 69.2433L27.5731 69.2282L27.5188 69.1738L27.4692 69.1243L27.4578 69.1129L27.2565 68.9083C27.2551 68.9068 27.2536 68.9053 27.2521 68.9038C26.0053 67.6193 24.7789 66.315 23.5735 64.9915L23.5721 64.9901C20.5414 61.6692 17.6394 58.2331 14.8724 54.6895C11.7116 50.6143 8.51701 46.0538 6.10684 41.5883C3.72192 37.1594 2 32.6314 2 28.6667C2 13.5279 13.9544 2 28.6667 2C43.3789 2 55.3333 13.5279 55.3333 28.6667C55.3333 32.6317 53.6111 37.1602 51.2262 41.5853L51.2261 41.5854C48.816 46.0579 45.6248 50.6148 42.4608 54.6896C38.5916 59.6458 34.4591 64.3908 30.0811 68.9039C30.0795 68.9056 30.0779 68.9072 30.0763 68.9088L29.9247 69.0628L29.1403 69.5946C28.9867 69.643 28.8264 69.6677 28.6649 69.6677C28.4564 69.6677 28.25 69.6265 28.0575 69.5466ZM28.6667 41.4167C32.0482 41.4167 35.2912 40.0734 37.6823 37.6823C40.0734 35.2912 41.4167 32.0482 41.4167 28.6667C41.4167 25.2852 40.0734 22.0421 37.6823 19.6511C35.2912 17.26 32.0482 15.9167 28.6667 15.9167C25.2852 15.9167 22.0421 17.26 19.6511 19.6511C17.26 22.0421 15.9167 25.2852 15.9167 28.6667C15.9167 32.0482 17.26 35.2912 19.6511 37.6823C22.0421 40.0734 25.2852 41.4167 28.6667 41.4167Z" fill="white" stroke="#68D3FD" stroke-width="4"/>
<circle cx="29.4981" cy="29.3316" r="17.4981" fill="white"/>
<path d="M29.1567 37.4495C27.7967 37.4495 26.5487 37.1615 25.4127 36.5855C24.2927 36.0255 23.3967 35.2335 22.7247 34.2095C22.0687 33.1695 21.7407 31.9695 21.7407 30.6095C21.7407 29.7135 21.8847 28.8735 22.1727 28.0895C22.4607 27.2895 22.9087 26.4015 23.5167 25.4255L28.5567 17.4335H33.5007L29.0607 24.0575C29.2207 23.9935 29.4047 23.9615 29.6127 23.9615C30.8767 23.9615 32.0367 24.2415 33.0927 24.8015C34.1647 25.3615 35.0127 26.1455 35.6367 27.1535C36.2607 28.1615 36.5727 29.3055 36.5727 30.5855C36.5727 31.8975 36.2367 33.0735 35.5647 34.1135C34.9087 35.1535 34.0127 35.9695 32.8767 36.5615C31.7567 37.1535 30.5167 37.4495 29.1567 37.4495ZM29.1567 33.7535C30.1167 33.7535 30.8847 33.4575 31.4607 32.8655C32.0367 32.2735 32.3247 31.5295 32.3247 30.6335C32.3247 29.7375 32.0367 28.9935 31.4607 28.4015C30.8847 27.8095 30.1167 27.5135 29.1567 27.5135C28.1967 27.5135 27.4287 27.8095 26.8527 28.4015C26.2767 28.9935 25.9887 29.7375 25.9887 30.6335C25.9887 31.5295 26.2767 32.2735 26.8527 32.8655C27.4287 33.4575 28.1967 33.7535 29.1567 33.7535Z" fill="#68D3FD"/>
</svg>
