<svg width="58" height="73" viewBox="0 0 58 73" fill="none" xmlns="http://www.w3.org/2000/svg">
<path d="M28.0575 69.5466C27.8834 69.4743 27.7238 69.3715 27.5861 69.2433L27.5731 69.2282L27.5188 69.1738L27.4692 69.1243L27.4578 69.1129L27.2565 68.9083C27.2551 68.9068 27.2536 68.9053 27.2521 68.9038C26.0053 67.6193 24.7789 66.315 23.5735 64.9915L23.5721 64.9901C20.5414 61.6692 17.6394 58.2331 14.8724 54.6895C11.7116 50.6143 8.51701 46.0538 6.10684 41.5883C3.72192 37.1594 2 32.6314 2 28.6667C2 13.5279 13.9544 2 28.6667 2C43.3789 2 55.3333 13.5279 55.3333 28.6667C55.3333 32.6317 53.6111 37.1602 51.2262 41.5853L51.2261 41.5854C48.816 46.0579 45.6248 50.6148 42.4608 54.6896C38.5916 59.6458 34.4591 64.3908 30.0811 68.9039C30.0795 68.9056 30.0779 68.9072 30.0763 68.9088L29.9247 69.0628L29.1403 69.5946C28.9867 69.643 28.8264 69.6677 28.6649 69.6677C28.4564 69.6677 28.25 69.6265 28.0575 69.5466ZM28.6667 41.4167C32.0482 41.4167 35.2912 40.0734 37.6823 37.6823C40.0734 35.2912 41.4167 32.0482 41.4167 28.6667C41.4167 25.2852 40.0734 22.0421 37.6823 19.6511C35.2912 17.26 32.0482 15.9167 28.6667 15.9167C25.2852 15.9167 22.0421 17.26 19.6511 19.6511C17.26 22.0421 15.9167 25.2852 15.9167 28.6667C15.9167 32.0482 17.26 35.2912 19.6511 37.6823C22.0421 40.0734 25.2852 41.4167 28.6667 41.4167Z" fill="white" stroke="#68D3FD" stroke-width="4"/>
<circle cx="29.4981" cy="29.3316" r="17.4981" fill="white"/>
<path d="M28.9407 30.3695C28.7807 30.4335 28.5967 30.4655 28.3887 30.4655C27.1247 30.4655 25.9567 30.1855 24.8847 29.6255C23.8287 29.0655 22.9887 28.2815 22.3647 27.2735C21.7407 26.2655 21.4287 25.1215 21.4287 23.8415C21.4287 22.4815 21.7567 21.2815 22.4127 20.2415C23.0847 19.2015 23.9807 18.4015 25.1007 17.8415C26.2367 17.2655 27.4847 16.9775 28.8447 16.9775C30.2047 16.9775 31.4447 17.2655 32.5647 17.8415C33.7007 18.4015 34.5967 19.2015 35.2527 20.2415C35.9247 21.2655 36.2607 22.4575 36.2607 23.8175C36.2607 24.7135 36.1167 25.5615 35.8287 26.3615C35.5407 27.1455 35.0927 28.0255 34.4847 29.0015L29.4447 36.9935H24.5007L28.9407 30.3695ZM28.8447 26.9135C29.8047 26.9135 30.5727 26.6175 31.1487 26.0255C31.7247 25.4335 32.0127 24.6895 32.0127 23.7935C32.0127 22.8975 31.7247 22.1535 31.1487 21.5615C30.5727 20.9695 29.8047 20.6735 28.8447 20.6735C27.8847 20.6735 27.1167 20.9695 26.5407 21.5615C25.9647 22.1535 25.6767 22.8975 25.6767 23.7935C25.6767 24.6895 25.9647 25.4335 26.5407 26.0255C27.1167 26.6175 27.8847 26.9135 28.8447 26.9135Z" fill="#68D3FD"/>
</svg>
