<svg width="58" height="72" viewBox="0 0 58 72" fill="none" xmlns="http://www.w3.org/2000/svg">
<path d="M28.6657 68.0823L27.2555 66.6661L26.1545 67.7624C25.2839 66.8485 24.4235 65.9248 23.5735 64.9915L23.5721 64.9901C20.5414 61.6692 17.6394 58.2331 14.8724 54.6895C11.7117 50.6144 8.51719 46.054 6.10705 41.5887C3.72202 37.1597 2 32.6315 2 28.6667C2 13.5279 13.9544 2 28.6667 2C43.3789 2 55.3333 13.5279 55.3333 28.6667C55.3333 32.6317 53.6111 37.1602 51.2262 41.5853L51.2261 41.5854C48.816 46.0579 45.6248 50.6148 42.4608 54.6896C38.9167 59.2294 35.1516 63.5919 31.1794 67.7614L30.0789 66.6671L30.0769 66.6651L28.6657 68.0823ZM28.6667 41.4167C32.0482 41.4167 35.2912 40.0734 37.6823 37.6823C40.0734 35.2912 41.4167 32.0482 41.4167 28.6667C41.4167 25.2852 40.0734 22.0421 37.6823 19.6511C35.2912 17.26 32.0482 15.9167 28.6667 15.9167C25.2852 15.9167 22.0421 17.26 19.6511 19.6511C17.26 22.0421 15.9167 25.2852 15.9167 28.6667C15.9167 32.0482 17.26 35.2912 19.6511 37.6823C22.0421 40.0734 25.2852 41.4167 28.6667 41.4167Z" fill="#68D3FD" stroke="#009EDC" stroke-width="4"/>
<circle cx="29.4981" cy="29.3316" r="17.4981" fill="#68D3FD"/>
<path d="M28.9407 30.3695C28.7807 30.4335 28.5967 30.4655 28.3887 30.4655C27.1247 30.4655 25.9567 30.1855 24.8847 29.6255C23.8287 29.0655 22.9887 28.2815 22.3647 27.2735C21.7407 26.2655 21.4287 25.1215 21.4287 23.8415C21.4287 22.4815 21.7567 21.2815 22.4127 20.2415C23.0847 19.2015 23.9807 18.4015 25.1007 17.8415C26.2367 17.2655 27.4847 16.9775 28.8447 16.9775C30.2047 16.9775 31.4447 17.2655 32.5647 17.8415C33.7007 18.4015 34.5967 19.2015 35.2527 20.2415C35.9247 21.2655 36.2607 22.4575 36.2607 23.8175C36.2607 24.7135 36.1167 25.5615 35.8287 26.3615C35.5407 27.1455 35.0927 28.0255 34.4847 29.0015L29.4447 36.9935H24.5007L28.9407 30.3695ZM28.8447 26.9135C29.8047 26.9135 30.5727 26.6175 31.1487 26.0255C31.7247 25.4335 32.0127 24.6895 32.0127 23.7935C32.0127 22.8975 31.7247 22.1535 31.1487 21.5615C30.5727 20.9695 29.8047 20.6735 28.8447 20.6735C27.8847 20.6735 27.1167 20.9695 26.5407 21.5615C25.9647 22.1535 25.6767 22.8975 25.6767 23.7935C25.6767 24.6895 25.9647 25.4335 26.5407 26.0255C27.1167 26.6175 27.8847 26.9135 28.8447 26.9135Z" fill="white"/>
</svg>
