<svg width="58" height="72" viewBox="0 0 58 72" fill="none" xmlns="http://www.w3.org/2000/svg">
<path d="M28.6657 68.0823L27.2555 66.6661L26.1545 67.7624C25.2839 66.8485 24.4235 65.9248 23.5735 64.9915L23.5721 64.9901C20.5414 61.6692 17.6394 58.2331 14.8724 54.6895C11.7117 50.6144 8.51719 46.054 6.10705 41.5887C3.72202 37.1597 2 32.6315 2 28.6667C2 13.5279 13.9544 2 28.6667 2C43.3789 2 55.3333 13.5279 55.3333 28.6667C55.3333 32.6317 53.6111 37.1602 51.2262 41.5853L51.2261 41.5854C48.816 46.0579 45.6248 50.6148 42.4608 54.6896C38.9167 59.2294 35.1516 63.5919 31.1794 67.7614L30.0789 66.6671L30.0769 66.6651L28.6657 68.0823ZM28.6667 41.4167C32.0482 41.4167 35.2912 40.0734 37.6823 37.6823C40.0734 35.2912 41.4167 32.0482 41.4167 28.6667C41.4167 25.2852 40.0734 22.0421 37.6823 19.6511C35.2912 17.26 32.0482 15.9167 28.6667 15.9167C25.2852 15.9167 22.0421 17.26 19.6511 19.6511C17.26 22.0421 15.9167 25.2852 15.9167 28.6667C15.9167 32.0482 17.26 35.2912 19.6511 37.6823C22.0421 40.0734 25.2852 41.4167 28.6667 41.4167Z" fill="#68D3FD" stroke="#009EDC" stroke-width="4"/>
<circle cx="29.4981" cy="29.3316" r="17.4981" fill="#68D3FD"/>
<path d="M23.3755 36.9935H19.0315V21.2255H15.5755V17.4335H23.3755V36.9935ZM34.6941 16.9055C36.1501 16.9055 37.4381 17.2975 38.5581 18.0815C39.6941 18.8495 40.5821 20.0095 41.2221 21.5615C41.8621 23.0975 42.1821 24.9775 42.1821 27.2015C42.1821 29.4255 41.8621 31.3055 41.2221 32.8415C40.5821 34.3775 39.6941 35.5295 38.5581 36.2975C37.4381 37.0815 36.1501 37.4735 34.6941 37.4735C33.2381 37.4735 31.9421 37.0815 30.8061 36.2975C29.6861 35.5295 28.8061 34.3775 28.1661 32.8415C27.5261 31.3055 27.2061 29.4255 27.2061 27.2015C27.2061 24.9775 27.5261 23.0975 28.1661 21.5615C28.8061 20.0095 29.6861 18.8495 30.8061 18.0815C31.9421 17.2975 33.2381 16.9055 34.6941 16.9055ZM34.6941 20.7215C33.6861 20.7215 32.8701 21.2655 32.2461 22.3535C31.6381 23.4415 31.3341 25.0575 31.3341 27.2015C31.3341 29.3295 31.6381 30.9375 32.2461 32.0255C32.8701 33.1135 33.6861 33.6575 34.6941 33.6575C35.7021 33.6575 36.5101 33.1135 37.1181 32.0255C37.7421 30.9375 38.0541 29.3295 38.0541 27.2015C38.0541 25.0575 37.7421 23.4415 37.1181 22.3535C36.5101 21.2655 35.7021 20.7215 34.6941 20.7215Z" fill="white"/>
</svg>
