<svg width="58" height="72" viewBox="0 0 58 72" fill="none" xmlns="http://www.w3.org/2000/svg">
<path fill-rule="evenodd" clip-rule="evenodd" d="M28.6667 68.0833L31.2037 70.6132C30.8707 70.9474 30.4751 71.2126 30.0394 71.3936C29.6037 71.5745 29.1366 71.6677 28.6649 71.6677C28.1931 71.6677 27.726 71.5745 27.2903 71.3936C26.8547 71.2126 26.459 70.9474 26.1261 70.6132L26.1046 70.5881L26.0437 70.5272L25.8215 70.3014C24.5583 69.0002 23.316 67.679 22.0948 66.3383C19.0289 62.9788 16.0932 59.5028 13.2942 55.9179C10.0978 51.7971 6.82983 47.1388 4.34658 42.5378C1.91708 38.0263 0 33.1387 0 28.6667C0 12.4019 12.8713 0 28.6667 0C44.462 0 57.3333 12.4019 57.3333 28.6667C57.3333 33.1387 55.4163 38.0263 52.9868 42.5342C50.5035 47.1423 47.2391 51.7971 44.0392 55.9179C40.1239 60.9333 35.9421 65.7347 31.5118 70.3014L31.2897 70.5272L31.2287 70.5881L31.2072 70.6096L28.6667 68.0833ZM28.6667 39.4167C31.5177 39.4167 34.252 38.2841 36.2681 36.2681C38.2841 34.2521 39.4167 31.5177 39.4167 28.6667C39.4167 25.8156 38.2841 23.0813 36.2681 21.0653C34.252 19.0493 31.5177 17.9167 28.6667 17.9167C25.8156 17.9167 23.0813 19.0493 21.0653 21.0653C19.0493 23.0813 17.9167 25.8156 17.9167 28.6667C17.9167 31.5177 19.0493 34.2521 21.0653 36.2681C23.0813 38.2841 25.8156 39.4167 28.6667 39.4167Z" fill="white"/>
<circle cx="29.4981" cy="29.3316" r="17.4981" fill="white"/>
<path d="M29.1567 37.4495C27.7967 37.4495 26.5487 37.1615 25.4127 36.5855C24.2927 36.0255 23.3967 35.2335 22.7247 34.2095C22.0687 33.1695 21.7407 31.9695 21.7407 30.6095C21.7407 29.7135 21.8847 28.8735 22.1727 28.0895C22.4607 27.2895 22.9087 26.4015 23.5167 25.4255L28.5567 17.4335H33.5007L29.0607 24.0575C29.2207 23.9935 29.4047 23.9615 29.6127 23.9615C30.8767 23.9615 32.0367 24.2415 33.0927 24.8015C34.1647 25.3615 35.0127 26.1455 35.6367 27.1535C36.2607 28.1615 36.5727 29.3055 36.5727 30.5855C36.5727 31.8975 36.2367 33.0735 35.5647 34.1135C34.9087 35.1535 34.0127 35.9695 32.8767 36.5615C31.7567 37.1535 30.5167 37.4495 29.1567 37.4495ZM29.1567 33.7535C30.1167 33.7535 30.8847 33.4575 31.4607 32.8655C32.0367 32.2735 32.3247 31.5295 32.3247 30.6335C32.3247 29.7375 32.0367 28.9935 31.4607 28.4015C30.8847 27.8095 30.1167 27.5135 29.1567 27.5135C28.1967 27.5135 27.4287 27.8095 26.8527 28.4015C26.2767 28.9935 25.9887 29.7375 25.9887 30.6335C25.9887 31.5295 26.2767 32.2735 26.8527 32.8655C27.4287 33.4575 28.1967 33.7535 29.1567 33.7535Z" fill="#68D3FD"/>
</svg>
