<svg width="58" height="72" viewBox="0 0 58 72" fill="none" xmlns="http://www.w3.org/2000/svg">
<path d="M28.6657 68.2488L27.2555 66.8326L26.1545 67.9289C25.2839 67.015 24.4235 66.0913 23.5735 65.158L23.5721 65.1566C20.5414 61.8357 17.6394 58.3996 14.8724 54.856C11.7117 50.7809 8.51719 46.2206 6.10705 41.7552C3.72202 37.3262 2 32.798 2 28.8332C2 13.6944 13.9544 2.1665 28.6667 2.1665C43.3789 2.1665 55.3333 13.6944 55.3333 28.8332C55.3333 32.7982 53.6111 37.3267 51.2262 41.7518L51.2261 41.7519C48.816 46.2244 45.6248 50.7813 42.4608 54.8561C38.9167 59.3959 35.1516 63.7584 31.1794 67.9279L30.0789 66.8336L30.0769 66.8316L28.6657 68.2488ZM28.6667 41.5832C32.0482 41.5832 35.2912 40.2399 37.6823 37.8488C40.0734 35.4577 41.4167 32.2147 41.4167 28.8332C41.4167 25.4517 40.0734 22.2087 37.6823 19.8176C35.2912 17.4265 32.0482 16.0832 28.6667 16.0832C25.2852 16.0832 22.0421 17.4265 19.6511 19.8176C17.26 22.2087 15.9167 25.4517 15.9167 28.8332C15.9167 32.2147 17.26 35.4577 19.6511 37.8488C22.0421 40.2399 25.2852 41.5832 28.6667 41.5832Z" fill="#68D3FD" stroke="#009EDC" stroke-width="4"/>
<circle cx="29.4981" cy="29.4981" r="17.4981" fill="#68D3FD"/>
<path d="M31.8247 37.16H27.4807V21.392H24.0247V17.6H31.8247V37.16Z" fill="white"/>
</svg>
