<svg width="58" height="73" viewBox="0 0 58 73" fill="none" xmlns="http://www.w3.org/2000/svg">
<path d="M26.777 69.8463L26.7564 69.8258L26.7507 69.82L26.539 69.6049C26.5383 69.6041 26.5375 69.6033 26.5368 69.6025C25.2818 68.3097 24.0474 66.997 22.8342 65.6649L22.8335 65.6642C19.7852 62.324 16.8664 58.868 14.0834 55.3038C10.9048 51.2058 7.67353 46.5964 5.22682 42.0632C2.81955 37.593 1 32.8851 1 28.6667C1 12.9649 13.4129 1 28.6667 1C43.9205 1 56.3333 12.9649 56.3333 28.6667C56.3333 32.8852 54.5137 37.5932 52.1065 42.0597L52.1064 42.0598C49.6597 46.6003 46.4318 51.2062 43.2497 55.3041C39.3576 60.2898 35.2005 65.0628 30.7965 69.6026C30.7957 69.6034 30.7949 69.6043 30.7941 69.6051L30.5826 69.82L30.5769 69.8258L30.5674 69.8353L29.5953 70.4943C29.2987 70.6089 28.9832 70.6677 28.6649 70.6677C28.3457 70.6677 28.0294 70.6086 27.7321 70.4934L26.777 69.8463ZM28.6667 40.4167C31.783 40.4167 34.7716 39.1787 36.9752 36.9752C39.1787 34.7716 40.4167 31.783 40.4167 28.6667C40.4167 25.5504 39.1787 22.5617 36.9752 20.3582C34.7716 18.1546 31.783 16.9167 28.6667 16.9167C25.5504 16.9167 22.5617 18.1546 20.3582 20.3582C18.1546 22.5617 16.9167 25.5504 16.9167 28.6667C16.9167 31.783 18.1546 34.7716 20.3582 36.9752C22.5617 39.1787 25.5504 40.4167 28.6667 40.4167Z" fill="white" stroke="#68D3FD" stroke-width="2"/>
<circle cx="29.4981" cy="29.3316" r="17.4981" fill="white"/>
<path d="M29.1567 37.4495C27.7967 37.4495 26.5487 37.1615 25.4127 36.5855C24.2927 36.0255 23.3967 35.2335 22.7247 34.2095C22.0687 33.1695 21.7407 31.9695 21.7407 30.6095C21.7407 29.7135 21.8847 28.8735 22.1727 28.0895C22.4607 27.2895 22.9087 26.4015 23.5167 25.4255L28.5567 17.4335H33.5007L29.0607 24.0575C29.2207 23.9935 29.4047 23.9615 29.6127 23.9615C30.8767 23.9615 32.0367 24.2415 33.0927 24.8015C34.1647 25.3615 35.0127 26.1455 35.6367 27.1535C36.2607 28.1615 36.5727 29.3055 36.5727 30.5855C36.5727 31.8975 36.2367 33.0735 35.5647 34.1135C34.9087 35.1535 34.0127 35.9695 32.8767 36.5615C31.7567 37.1535 30.5167 37.4495 29.1567 37.4495ZM29.1567 33.7535C30.1167 33.7535 30.8847 33.4575 31.4607 32.8655C32.0367 32.2735 32.3247 31.5295 32.3247 30.6335C32.3247 29.7375 32.0367 28.9935 31.4607 28.4015C30.8847 27.8095 30.1167 27.5135 29.1567 27.5135C28.1967 27.5135 27.4287 27.8095 26.8527 28.4015C26.2767 28.9935 25.9887 29.7375 25.9887 30.6335C25.9887 31.5295 26.2767 32.2735 26.8527 32.8655C27.4287 33.4575 28.1967 33.7535 29.1567 33.7535Z" fill="black"/>
</svg>
