<svg width="58" height="72" viewBox="0 0 58 72" fill="none" xmlns="http://www.w3.org/2000/svg">
<path d="M28.6657 68.0823L27.2555 66.6661L26.1545 67.7624C25.2839 66.8485 24.4235 65.9248 23.5735 64.9915L23.5721 64.9901C20.5414 61.6692 17.6394 58.2331 14.8724 54.6895C11.7117 50.6144 8.51719 46.054 6.10705 41.5887C3.72202 37.1597 2 32.6315 2 28.6667C2 13.5279 13.9544 2 28.6667 2C43.3789 2 55.3333 13.5279 55.3333 28.6667C55.3333 32.6317 53.6111 37.1602 51.2262 41.5853L51.2261 41.5854C48.8158 46.0582 45.6245 50.6154 42.4603 54.6903C38.9163 59.2299 35.1514 63.5921 31.1794 67.7614L30.0789 66.6671L30.0769 66.6651L28.6657 68.0823ZM28.6667 41.4167C32.0482 41.4167 35.2912 40.0734 37.6823 37.6823C40.0734 35.2912 41.4167 32.0482 41.4167 28.6667C41.4167 25.2852 40.0734 22.0421 37.6823 19.6511C35.2912 17.26 32.0482 15.9167 28.6667 15.9167C25.2852 15.9167 22.0421 17.26 19.6511 19.6511C17.26 22.0421 15.9167 25.2852 15.9167 28.6667C15.9167 32.0482 17.26 35.2912 19.6511 37.6823C22.0421 40.0734 25.2852 41.4167 28.6667 41.4167Z" fill="#68D3FD" stroke="#009EDC" stroke-width="4"/>
<circle cx="29.4981" cy="29.3316" r="17.4981" fill="#68D3FD"/>
<path d="M36.4438 31.6655C36.4438 32.8175 36.1158 33.8335 35.4598 34.7135C34.8038 35.5935 33.9078 36.2735 32.7718 36.7535C31.6518 37.2335 30.3958 37.4735 29.0038 37.4735C27.6118 37.4735 26.3478 37.2335 25.2118 36.7535C24.0918 36.2735 23.2038 35.5935 22.5478 34.7135C21.8918 33.8335 21.5638 32.8175 21.5638 31.6655C21.5638 30.8175 21.7638 30.0495 22.1638 29.3615C22.5638 28.6735 23.0678 28.1215 23.6758 27.7055C24.2998 27.2735 24.9158 26.9935 25.5238 26.8655C24.9958 26.7055 24.4758 26.4175 23.9638 26.0015C23.4678 25.5855 23.0518 25.0735 22.7158 24.4655C22.3958 23.8575 22.2358 23.2015 22.2358 22.4975C22.2358 21.4735 22.5238 20.5375 23.0998 19.6895C23.6758 18.8415 24.4758 18.1695 25.4998 17.6735C26.5398 17.1615 27.7078 16.9055 29.0038 16.9055C30.2998 16.9055 31.4598 17.1615 32.4838 17.6735C33.5078 18.1695 34.2998 18.8495 34.8598 19.7135C35.4358 20.5615 35.7238 21.4895 35.7238 22.4975C35.7238 23.2015 35.5638 23.8575 35.2438 24.4655C34.9238 25.0735 34.5078 25.5855 33.9958 26.0015C33.4998 26.4175 32.9958 26.7055 32.4838 26.8655C33.1078 26.9935 33.7238 27.2735 34.3318 27.7055C34.9398 28.1215 35.4438 28.6735 35.8438 29.3615C36.2438 30.0495 36.4438 30.8175 36.4438 31.6655ZM31.6438 22.6655C31.6438 22.0415 31.3958 21.5215 30.8998 21.1055C30.4038 20.6735 29.7718 20.4575 29.0038 20.4575C28.2358 20.4575 27.6038 20.6575 27.1078 21.0575C26.6118 21.4415 26.3638 21.9455 26.3638 22.5695C26.3638 23.2415 26.6198 23.8015 27.1318 24.2495C27.6438 24.6815 28.2678 24.8975 29.0038 24.8975C29.7718 24.8975 30.4038 24.6895 30.8998 24.2735C31.3958 23.8575 31.6438 23.3215 31.6438 22.6655ZM32.2438 31.4015C32.2438 30.6655 31.9318 30.0575 31.3078 29.5775C30.6998 29.0975 29.9318 28.8575 29.0038 28.8575C28.0758 28.8575 27.2998 29.0975 26.6758 29.5775C26.0678 30.0575 25.7638 30.6655 25.7638 31.4015C25.7638 32.1215 26.0598 32.7135 26.6518 33.1775C27.2598 33.6415 28.0438 33.8735 29.0038 33.8735C29.9638 33.8735 30.7398 33.6415 31.3318 33.1775C31.9398 32.7135 32.2438 32.1215 32.2438 31.4015Z" fill="white"/>
</svg>
