<svg width="58" height="73" viewBox="0 0 58 73" fill="none" xmlns="http://www.w3.org/2000/svg">
<path d="M28.0575 69.5466C27.8834 69.4743 27.7238 69.3715 27.5861 69.2433L27.5731 69.2282L27.5188 69.1738L27.4692 69.1243L27.4578 69.1129L27.2565 68.9083C27.2551 68.9068 27.2536 68.9053 27.2521 68.9038C26.0053 67.6193 24.7789 66.315 23.5735 64.9915L23.5721 64.9901C20.5414 61.6692 17.6394 58.2331 14.8724 54.6895C11.7116 50.6143 8.51701 46.0538 6.10684 41.5883C3.72192 37.1594 2 32.6314 2 28.6667C2 13.5279 13.9544 2 28.6667 2C43.3789 2 55.3333 13.5279 55.3333 28.6667C55.3333 32.6317 53.6111 37.1602 51.2262 41.5853L51.2261 41.5854C48.816 46.0579 45.6248 50.6148 42.4608 54.6896C38.5916 59.6458 34.4591 64.3908 30.0811 68.9039C30.0795 68.9056 30.0779 68.9072 30.0763 68.9088L29.9247 69.0628L29.1403 69.5946C28.9867 69.643 28.8264 69.6677 28.6649 69.6677C28.4564 69.6677 28.25 69.6265 28.0575 69.5466ZM28.6667 41.4167C32.0482 41.4167 35.2912 40.0734 37.6823 37.6823C40.0734 35.2912 41.4167 32.0482 41.4167 28.6667C41.4167 25.2852 40.0734 22.0421 37.6823 19.6511C35.2912 17.26 32.0482 15.9167 28.6667 15.9167C25.2852 15.9167 22.0421 17.26 19.6511 19.6511C17.26 22.0421 15.9167 25.2852 15.9167 28.6667C15.9167 32.0482 17.26 35.2912 19.6511 37.6823C22.0421 40.0734 25.2852 41.4167 28.6667 41.4167Z" fill="white" stroke="#68D3FD" stroke-width="4"/>
<circle cx="29.4981" cy="29.3316" r="17.4981" fill="white"/>
<path d="M28.7498 16.9055C30.0938 16.9055 31.2858 17.1535 32.3258 17.6495C33.3658 18.1455 34.1738 18.8415 34.7498 19.7375C35.3258 20.6175 35.6138 21.6335 35.6138 22.7855C35.6138 23.5055 35.4538 24.1695 35.1338 24.7775C34.8298 25.3855 34.4218 25.8815 33.9098 26.2655C33.4138 26.6495 32.8858 26.8895 32.3258 26.9855C32.9498 27.0815 33.5498 27.3215 34.1258 27.7055C34.7178 28.0895 35.1978 28.5935 35.5658 29.2175C35.9498 29.8415 36.1418 30.5535 36.1418 31.3535C36.1418 32.5855 35.8218 33.6655 35.1818 34.5935C34.5418 35.5055 33.6698 36.2095 32.5658 36.7055C31.4778 37.2175 30.2538 37.4735 28.8938 37.4735C26.7658 37.4735 25.0618 36.9215 23.7818 35.8175C22.5018 34.7135 21.7818 33.2095 21.6218 31.3055H25.9178C25.9978 32.1055 26.2858 32.7215 26.7818 33.1535C27.2938 33.5855 27.9978 33.8015 28.8938 33.8015C29.7898 33.8015 30.5098 33.5775 31.0538 33.1295C31.6138 32.6815 31.8938 32.0975 31.8938 31.3775C31.8938 30.5775 31.5818 29.9615 30.9578 29.5295C30.3498 29.0975 29.5258 28.8815 28.4858 28.8815H26.5418V25.3295H28.4858C29.3658 25.3295 30.0538 25.1135 30.5498 24.6815C31.0618 24.2335 31.3178 23.6335 31.3178 22.8815C31.3178 22.1615 31.0858 21.5935 30.6218 21.1775C30.1738 20.7615 29.5418 20.5535 28.7258 20.5535C27.9258 20.5535 27.3098 20.8255 26.8778 21.3695C26.4458 21.9135 26.2298 22.5615 26.2298 23.3135H21.9338C21.9338 22.0815 22.2218 20.9855 22.7978 20.0255C23.3738 19.0495 24.1818 18.2895 25.2218 17.7455C26.2618 17.1855 27.4378 16.9055 28.7498 16.9055Z" fill="#68D3FD"/>
</svg>
