<svg width="58" height="72" viewBox="0 0 58 72" fill="none" xmlns="http://www.w3.org/2000/svg">
<path fill-rule="evenodd" clip-rule="evenodd" d="M28.6667 68.0833L31.2037 70.6132C30.8707 70.9474 30.4751 71.2126 30.0394 71.3936C29.6037 71.5745 29.1366 71.6677 28.6649 71.6677C28.1931 71.6677 27.726 71.5745 27.2903 71.3936C26.8547 71.2126 26.459 70.9474 26.1261 70.6132L26.1046 70.5881L26.0437 70.5272L25.8215 70.3014C24.5583 69.0002 23.316 67.679 22.0948 66.3383C19.0289 62.9788 16.0932 59.5028 13.2942 55.9179C10.0978 51.7971 6.82983 47.1388 4.34658 42.5378C1.91708 38.0263 0 33.1387 0 28.6667C0 12.4019 12.8713 0 28.6667 0C44.462 0 57.3333 12.4019 57.3333 28.6667C57.3333 33.1387 55.4163 38.0263 52.9868 42.5342C50.5035 47.1423 47.2391 51.7971 44.0392 55.9179C40.1239 60.9333 35.9421 65.7347 31.5118 70.3014L31.2897 70.5272L31.2287 70.5881L31.2072 70.6096L28.6667 68.0833ZM28.6667 39.4167C31.5177 39.4167 34.252 38.2841 36.2681 36.2681C38.2841 34.2521 39.4167 31.5177 39.4167 28.6667C39.4167 25.8156 38.2841 23.0813 36.2681 21.0653C34.252 19.0493 31.5177 17.9167 28.6667 17.9167C25.8156 17.9167 23.0813 19.0493 21.0653 21.0653C19.0493 23.0813 17.9167 25.8156 17.9167 28.6667C17.9167 31.5177 19.0493 34.2521 21.0653 36.2681C23.0813 38.2841 25.8156 39.4167 28.6667 39.4167Z" fill="white"/>
<circle cx="29.4981" cy="29.3316" r="17.4981" fill="white"/>
<path d="M28.9407 30.3695C28.7807 30.4335 28.5967 30.4655 28.3887 30.4655C27.1247 30.4655 25.9567 30.1855 24.8847 29.6255C23.8287 29.0655 22.9887 28.2815 22.3647 27.2735C21.7407 26.2655 21.4287 25.1215 21.4287 23.8415C21.4287 22.4815 21.7567 21.2815 22.4127 20.2415C23.0847 19.2015 23.9807 18.4015 25.1007 17.8415C26.2367 17.2655 27.4847 16.9775 28.8447 16.9775C30.2047 16.9775 31.4447 17.2655 32.5647 17.8415C33.7007 18.4015 34.5967 19.2015 35.2527 20.2415C35.9247 21.2655 36.2607 22.4575 36.2607 23.8175C36.2607 24.7135 36.1167 25.5615 35.8287 26.3615C35.5407 27.1455 35.0927 28.0255 34.4847 29.0015L29.4447 36.9935H24.5007L28.9407 30.3695ZM28.8447 26.9135C29.8047 26.9135 30.5727 26.6175 31.1487 26.0255C31.7247 25.4335 32.0127 24.6895 32.0127 23.7935C32.0127 22.8975 31.7247 22.1535 31.1487 21.5615C30.5727 20.9695 29.8047 20.6735 28.8447 20.6735C27.8847 20.6735 27.1167 20.9695 26.5407 21.5615C25.9647 22.1535 25.6767 22.8975 25.6767 23.7935C25.6767 24.6895 25.9647 25.4335 26.5407 26.0255C27.1167 26.6175 27.8847 26.9135 28.8447 26.9135Z" fill="#68D3FD"/>
</svg>
