<svg width="58" height="73" viewBox="0 0 58 73" fill="none" xmlns="http://www.w3.org/2000/svg">
<path d="M26.777 69.8463L26.7564 69.8258L26.7507 69.82L26.539 69.6049C26.5383 69.6041 26.5375 69.6033 26.5368 69.6025C25.2818 68.3097 24.0474 66.997 22.8342 65.6649L22.8335 65.6642C19.7852 62.324 16.8664 58.868 14.0834 55.3038C10.9048 51.2058 7.67353 46.5964 5.22682 42.0632C2.81955 37.593 1 32.8851 1 28.6667C1 12.9649 13.4129 1 28.6667 1C43.9205 1 56.3333 12.9649 56.3333 28.6667C56.3333 32.8852 54.5137 37.5932 52.1065 42.0597L52.1064 42.0598C49.6597 46.6003 46.4318 51.2062 43.2497 55.3041C39.3576 60.2898 35.2005 65.0628 30.7965 69.6026C30.7957 69.6034 30.7949 69.6043 30.7941 69.6051L30.5826 69.82L30.5769 69.8258L30.5674 69.8353L29.5953 70.4943C29.2987 70.6089 28.9832 70.6677 28.6649 70.6677C28.3457 70.6677 28.0294 70.6086 27.7321 70.4934L26.777 69.8463ZM28.6667 40.4167C31.783 40.4167 34.7716 39.1787 36.9752 36.9752C39.1787 34.7716 40.4167 31.783 40.4167 28.6667C40.4167 25.5504 39.1787 22.5617 36.9752 20.3582C34.7716 18.1546 31.783 16.9167 28.6667 16.9167C25.5504 16.9167 22.5617 18.1546 20.3582 20.3582C18.1546 22.5617 16.9167 25.5504 16.9167 28.6667C16.9167 31.783 18.1546 34.7716 20.3582 36.9752C22.5617 39.1787 25.5504 40.4167 28.6667 40.4167Z" fill="white" stroke="#68D3FD" stroke-width="2"/>
<circle cx="29.4981" cy="29.3316" r="17.4981" fill="white"/>
<path d="M23.3755 36.9935H19.0315V21.2255H15.5755V17.4335H23.3755V36.9935ZM34.6941 16.9055C36.1501 16.9055 37.4381 17.2975 38.5581 18.0815C39.6941 18.8495 40.5821 20.0095 41.2221 21.5615C41.8621 23.0975 42.1821 24.9775 42.1821 27.2015C42.1821 29.4255 41.8621 31.3055 41.2221 32.8415C40.5821 34.3775 39.6941 35.5295 38.5581 36.2975C37.4381 37.0815 36.1501 37.4735 34.6941 37.4735C33.2381 37.4735 31.9421 37.0815 30.8061 36.2975C29.6861 35.5295 28.8061 34.3775 28.1661 32.8415C27.5261 31.3055 27.2061 29.4255 27.2061 27.2015C27.2061 24.9775 27.5261 23.0975 28.1661 21.5615C28.8061 20.0095 29.6861 18.8495 30.8061 18.0815C31.9421 17.2975 33.2381 16.9055 34.6941 16.9055ZM34.6941 20.7215C33.6861 20.7215 32.8701 21.2655 32.2461 22.3535C31.6381 23.4415 31.3341 25.0575 31.3341 27.2015C31.3341 29.3295 31.6381 30.9375 32.2461 32.0255C32.8701 33.1135 33.6861 33.6575 34.6941 33.6575C35.7021 33.6575 36.5101 33.1135 37.1181 32.0255C37.7421 30.9375 38.0541 29.3295 38.0541 27.2015C38.0541 25.0575 37.7421 23.4415 37.1181 22.3535C36.5101 21.2655 35.7021 20.7215 34.6941 20.7215Z" fill="black"/>
</svg>
