<svg width="58" height="72" viewBox="0 0 58 72" fill="none" xmlns="http://www.w3.org/2000/svg">
<path fill-rule="evenodd" clip-rule="evenodd" d="M28.6667 68.0833L31.2037 70.6132C30.8707 70.9474 30.4751 71.2126 30.0394 71.3936C29.6037 71.5745 29.1366 71.6677 28.6649 71.6677C28.1931 71.6677 27.726 71.5745 27.2903 71.3936C26.8547 71.2126 26.459 70.9474 26.1261 70.6132L26.1046 70.5881L26.0437 70.5272L25.8215 70.3014C24.5583 69.0002 23.316 67.679 22.0948 66.3383C19.0289 62.9788 16.0932 59.5028 13.2942 55.9179C10.0978 51.7971 6.82983 47.1388 4.34658 42.5378C1.91708 38.0263 0 33.1387 0 28.6667C0 12.4019 12.8713 0 28.6667 0C44.462 0 57.3333 12.4019 57.3333 28.6667C57.3333 33.1387 55.4163 38.0263 52.9868 42.5342C50.5035 47.1423 47.2391 51.7971 44.0392 55.9179C40.1239 60.9333 35.9421 65.7347 31.5118 70.3014L31.2897 70.5272L31.2287 70.5881L31.2072 70.6096L28.6667 68.0833ZM28.6667 39.4167C31.5177 39.4167 34.252 38.2841 36.2681 36.2681C38.2841 34.2521 39.4167 31.5177 39.4167 28.6667C39.4167 25.8156 38.2841 23.0813 36.2681 21.0653C34.252 19.0493 31.5177 17.9167 28.6667 17.9167C25.8156 17.9167 23.0813 19.0493 21.0653 21.0653C19.0493 23.0813 17.9167 25.8156 17.9167 28.6667C17.9167 31.5177 19.0493 34.2521 21.0653 36.2681C23.0813 38.2841 25.8156 39.4167 28.6667 39.4167Z" fill="white"/>
<circle cx="29.4981" cy="29.3316" r="17.4981" fill="white"/>
<path d="M36.4438 31.6655C36.4438 32.8175 36.1158 33.8335 35.4598 34.7135C34.8038 35.5935 33.9078 36.2735 32.7718 36.7535C31.6518 37.2335 30.3958 37.4735 29.0038 37.4735C27.6118 37.4735 26.3478 37.2335 25.2118 36.7535C24.0918 36.2735 23.2038 35.5935 22.5478 34.7135C21.8918 33.8335 21.5638 32.8175 21.5638 31.6655C21.5638 30.8175 21.7638 30.0495 22.1638 29.3615C22.5638 28.6735 23.0678 28.1215 23.6758 27.7055C24.2998 27.2735 24.9158 26.9935 25.5238 26.8655C24.9958 26.7055 24.4758 26.4175 23.9638 26.0015C23.4678 25.5855 23.0518 25.0735 22.7158 24.4655C22.3958 23.8575 22.2358 23.2015 22.2358 22.4975C22.2358 21.4735 22.5238 20.5375 23.0998 19.6895C23.6758 18.8415 24.4758 18.1695 25.4998 17.6735C26.5398 17.1615 27.7078 16.9055 29.0038 16.9055C30.2998 16.9055 31.4598 17.1615 32.4838 17.6735C33.5078 18.1695 34.2998 18.8495 34.8598 19.7135C35.4358 20.5615 35.7238 21.4895 35.7238 22.4975C35.7238 23.2015 35.5638 23.8575 35.2438 24.4655C34.9238 25.0735 34.5078 25.5855 33.9958 26.0015C33.4998 26.4175 32.9958 26.7055 32.4838 26.8655C33.1078 26.9935 33.7238 27.2735 34.3318 27.7055C34.9398 28.1215 35.4438 28.6735 35.8438 29.3615C36.2438 30.0495 36.4438 30.8175 36.4438 31.6655ZM31.6438 22.6655C31.6438 22.0415 31.3958 21.5215 30.8998 21.1055C30.4038 20.6735 29.7718 20.4575 29.0038 20.4575C28.2358 20.4575 27.6038 20.6575 27.1078 21.0575C26.6118 21.4415 26.3638 21.9455 26.3638 22.5695C26.3638 23.2415 26.6198 23.8015 27.1318 24.2495C27.6438 24.6815 28.2678 24.8975 29.0038 24.8975C29.7718 24.8975 30.4038 24.6895 30.8998 24.2735C31.3958 23.8575 31.6438 23.3215 31.6438 22.6655ZM32.2438 31.4015C32.2438 30.6655 31.9318 30.0575 31.3078 29.5775C30.6998 29.0975 29.9318 28.8575 29.0038 28.8575C28.0758 28.8575 27.2998 29.0975 26.6758 29.5775C26.0678 30.0575 25.7638 30.6655 25.7638 31.4015C25.7638 32.1215 26.0598 32.7135 26.6518 33.1775C27.2598 33.6415 28.0438 33.8735 29.0038 33.8735C29.9638 33.8735 30.7398 33.6415 31.3318 33.1775C31.9398 32.7135 32.2438 32.1215 32.2438 31.4015Z" fill="#68D3FD"/>
</svg>
