<svg width="58" height="73" viewBox="0 0 58 73" fill="none" xmlns="http://www.w3.org/2000/svg">
<path d="M26.777 69.8463L26.7564 69.8258L26.7507 69.82L26.539 69.6049C26.5383 69.6041 26.5375 69.6033 26.5368 69.6025C25.2818 68.3097 24.0474 66.997 22.8342 65.6649L22.8335 65.6642C19.7852 62.324 16.8664 58.868 14.0834 55.3038C10.9048 51.2058 7.67353 46.5964 5.22682 42.0632C2.81955 37.593 1 32.8851 1 28.6667C1 12.9649 13.4129 1 28.6667 1C43.9205 1 56.3333 12.9649 56.3333 28.6667C56.3333 32.8852 54.5137 37.5932 52.1065 42.0597L52.1064 42.0598C49.6597 46.6003 46.4318 51.2062 43.2497 55.3041C39.3576 60.2898 35.2005 65.0628 30.7965 69.6026C30.7957 69.6034 30.7949 69.6043 30.7941 69.6051L30.5826 69.82L30.5769 69.8258L30.5674 69.8353L29.5953 70.4943C29.2987 70.6089 28.9832 70.6677 28.6649 70.6677C28.3457 70.6677 28.0294 70.6086 27.7321 70.4934L26.777 69.8463ZM28.6667 40.4167C31.783 40.4167 34.7716 39.1787 36.9752 36.9752C39.1787 34.7716 40.4167 31.783 40.4167 28.6667C40.4167 25.5504 39.1787 22.5617 36.9752 20.3582C34.7716 18.1546 31.783 16.9167 28.6667 16.9167C25.5504 16.9167 22.5617 18.1546 20.3582 20.3582C18.1546 22.5617 16.9167 25.5504 16.9167 28.6667C16.9167 31.783 18.1546 34.7716 20.3582 36.9752C22.5617 39.1787 25.5504 40.4167 28.6667 40.4167Z" fill="#68D3FD" stroke="#68D3FD" stroke-width="2"/>
<circle cx="29.4981" cy="29.3316" r="17.4981" fill="#68D3FD"/>
<path d="M36.4438 31.6655C36.4438 32.8175 36.1158 33.8335 35.4598 34.7135C34.8038 35.5935 33.9078 36.2735 32.7718 36.7535C31.6518 37.2335 30.3958 37.4735 29.0038 37.4735C27.6118 37.4735 26.3478 37.2335 25.2118 36.7535C24.0918 36.2735 23.2038 35.5935 22.5478 34.7135C21.8918 33.8335 21.5638 32.8175 21.5638 31.6655C21.5638 30.8175 21.7638 30.0495 22.1638 29.3615C22.5638 28.6735 23.0678 28.1215 23.6758 27.7055C24.2998 27.2735 24.9158 26.9935 25.5238 26.8655C24.9958 26.7055 24.4758 26.4175 23.9638 26.0015C23.4678 25.5855 23.0518 25.0735 22.7158 24.4655C22.3958 23.8575 22.2358 23.2015 22.2358 22.4975C22.2358 21.4735 22.5238 20.5375 23.0998 19.6895C23.6758 18.8415 24.4758 18.1695 25.4998 17.6735C26.5398 17.1615 27.7078 16.9055 29.0038 16.9055C30.2998 16.9055 31.4598 17.1615 32.4838 17.6735C33.5078 18.1695 34.2998 18.8495 34.8598 19.7135C35.4358 20.5615 35.7238 21.4895 35.7238 22.4975C35.7238 23.2015 35.5638 23.8575 35.2438 24.4655C34.9238 25.0735 34.5078 25.5855 33.9958 26.0015C33.4998 26.4175 32.9958 26.7055 32.4838 26.8655C33.1078 26.9935 33.7238 27.2735 34.3318 27.7055C34.9398 28.1215 35.4438 28.6735 35.8438 29.3615C36.2438 30.0495 36.4438 30.8175 36.4438 31.6655ZM31.6438 22.6655C31.6438 22.0415 31.3958 21.5215 30.8998 21.1055C30.4038 20.6735 29.7718 20.4575 29.0038 20.4575C28.2358 20.4575 27.6038 20.6575 27.1078 21.0575C26.6118 21.4415 26.3638 21.9455 26.3638 22.5695C26.3638 23.2415 26.6198 23.8015 27.1318 24.2495C27.6438 24.6815 28.2678 24.8975 29.0038 24.8975C29.7718 24.8975 30.4038 24.6895 30.8998 24.2735C31.3958 23.8575 31.6438 23.3215 31.6438 22.6655ZM32.2438 31.4015C32.2438 30.6655 31.9318 30.0575 31.3078 29.5775C30.6998 29.0975 29.9318 28.8575 29.0038 28.8575C28.0758 28.8575 27.2998 29.0975 26.6758 29.5775C26.0678 30.0575 25.7638 30.6655 25.7638 31.4015C25.7638 32.1215 26.0598 32.7135 26.6518 33.1775C27.2598 33.6415 28.0438 33.8735 29.0038 33.8735C29.9638 33.8735 30.7398 33.6415 31.3318 33.1775C31.9398 32.7135 32.2438 32.1215 32.2438 31.4015Z" fill="white"/>
</svg>
