<svg width="58" height="73" viewBox="0 0 58 73" fill="none" xmlns="http://www.w3.org/2000/svg">
<path d="M28.0575 69.7131C27.8834 69.6408 27.7238 69.538 27.5861 69.4098L27.5731 69.3947L27.5188 69.3403L27.4692 69.2908L27.4578 69.2794L27.2565 69.0748C27.2551 69.0733 27.2536 69.0718 27.2521 69.0703C26.0053 67.7858 24.7789 66.4815 23.5735 65.158L23.5721 65.1566C20.5414 61.8357 17.6394 58.3996 14.8724 54.856C11.7116 50.7808 8.51701 46.2203 6.10684 41.7548C3.72192 37.3259 2 32.7979 2 28.8332C2 13.6944 13.9544 2.1665 28.6667 2.1665C43.3789 2.1665 55.3333 13.6944 55.3333 28.8332C55.3333 32.7982 53.6111 37.3267 51.2262 41.7518L51.2261 41.7519C48.816 46.2244 45.6248 50.7813 42.4608 54.8561C38.5916 59.8123 34.4591 64.5573 30.0811 69.0704C30.0795 69.0721 30.0779 69.0737 30.0763 69.0753L29.9247 69.2293L29.1403 69.7611C28.9867 69.8095 28.8264 69.8342 28.6649 69.8342C28.4564 69.8342 28.25 69.7931 28.0575 69.7131ZM28.6667 41.5832C32.0482 41.5832 35.2912 40.2399 37.6823 37.8488C40.0734 35.4577 41.4167 32.2147 41.4167 28.8332C41.4167 25.4517 40.0734 22.2087 37.6823 19.8176C35.2912 17.4265 32.0482 16.0832 28.6667 16.0832C25.2852 16.0832 22.0421 17.4265 19.6511 19.8176C17.26 22.2086 15.9167 25.4517 15.9167 28.8332C15.9167 32.2147 17.26 35.4577 19.6511 37.8488C22.0421 40.2399 25.2852 41.5832 28.6667 41.5832Z" fill="white" stroke="#68D3FD" stroke-width="4"/>
<circle cx="29.4981" cy="29.4981" r="17.4981" fill="white"/>
<path d="M31.8247 37.16H27.4807V21.392H24.0247V17.6H31.8247V37.16Z" fill="#68D3FD"/>
</svg>
