<svg width="58" height="72" viewBox="0 0 58 72" fill="none" xmlns="http://www.w3.org/2000/svg">
<path fill-rule="evenodd" clip-rule="evenodd" d="M28.6667 68.0833L31.2037 70.6132C30.8707 70.9474 30.4751 71.2126 30.0394 71.3936C29.6037 71.5745 29.1366 71.6677 28.6649 71.6677C28.1931 71.6677 27.726 71.5745 27.2903 71.3936C26.8547 71.2126 26.459 70.9474 26.1261 70.6132L26.1046 70.5881L26.0437 70.5272L25.8215 70.3014C24.5583 69.0002 23.316 67.679 22.0948 66.3383C19.0289 62.9788 16.0932 59.5028 13.2942 55.9179C10.0978 51.7971 6.82983 47.1388 4.34658 42.5378C1.91708 38.0263 0 33.1387 0 28.6667C0 12.4019 12.8713 0 28.6667 0C44.462 0 57.3333 12.4019 57.3333 28.6667C57.3333 33.1387 55.4163 38.0263 52.9868 42.5342C50.5035 47.1423 47.2391 51.7971 44.0392 55.9179C40.1239 60.9333 35.9421 65.7347 31.5118 70.3014L31.2897 70.5272L31.2287 70.5881L31.2072 70.6096L28.6667 68.0833ZM28.6667 39.4167C31.5177 39.4167 34.252 38.2841 36.2681 36.2681C38.2841 34.2521 39.4167 31.5177 39.4167 28.6667C39.4167 25.8156 38.2841 23.0813 36.2681 21.0653C34.252 19.0493 31.5177 17.9167 28.6667 17.9167C25.8156 17.9167 23.0813 19.0493 21.0653 21.0653C19.0493 23.0813 17.9167 25.8156 17.9167 28.6667C17.9167 31.5177 19.0493 34.2521 21.0653 36.2681C23.0813 38.2841 25.8156 39.4167 28.6667 39.4167Z" fill="#68D3FD"/>
<circle cx="29.4981" cy="29.3316" r="17.4981" fill="#68D3FD"/>
<path d="M28.7498 16.9055C30.0938 16.9055 31.2858 17.1535 32.3258 17.6495C33.3658 18.1455 34.1738 18.8415 34.7498 19.7375C35.3258 20.6175 35.6138 21.6335 35.6138 22.7855C35.6138 23.5055 35.4538 24.1695 35.1338 24.7775C34.8298 25.3855 34.4218 25.8815 33.9098 26.2655C33.4138 26.6495 32.8858 26.8895 32.3258 26.9855C32.9498 27.0815 33.5498 27.3215 34.1258 27.7055C34.7178 28.0895 35.1978 28.5935 35.5658 29.2175C35.9498 29.8415 36.1418 30.5535 36.1418 31.3535C36.1418 32.5855 35.8218 33.6655 35.1818 34.5935C34.5418 35.5055 33.6698 36.2095 32.5658 36.7055C31.4778 37.2175 30.2538 37.4735 28.8938 37.4735C26.7658 37.4735 25.0618 36.9215 23.7818 35.8175C22.5018 34.7135 21.7818 33.2095 21.6218 31.3055H25.9178C25.9978 32.1055 26.2858 32.7215 26.7818 33.1535C27.2938 33.5855 27.9978 33.8015 28.8938 33.8015C29.7898 33.8015 30.5098 33.5775 31.0538 33.1295C31.6138 32.6815 31.8938 32.0975 31.8938 31.3775C31.8938 30.5775 31.5818 29.9615 30.9578 29.5295C30.3498 29.0975 29.5258 28.8815 28.4858 28.8815H26.5418V25.3295H28.4858C29.3658 25.3295 30.0538 25.1135 30.5498 24.6815C31.0618 24.2335 31.3178 23.6335 31.3178 22.8815C31.3178 22.1615 31.0858 21.5935 30.6218 21.1775C30.1738 20.7615 29.5418 20.5535 28.7258 20.5535C27.9258 20.5535 27.3098 20.8255 26.8778 21.3695C26.4458 21.9135 26.2298 22.5615 26.2298 23.3135H21.9338C21.9338 22.0815 22.2218 20.9855 22.7978 20.0255C23.3738 19.0495 24.1818 18.2895 25.2218 17.7455C26.2618 17.1855 27.4378 16.9055 28.7498 16.9055Z" fill="white"/>
</svg>
