<svg width="58" height="72" viewBox="0 0 58 72" fill="none" xmlns="http://www.w3.org/2000/svg">
<path fill-rule="evenodd" clip-rule="evenodd" d="M28.6667 68.0833L31.2037 70.6132C30.8707 70.9474 30.4751 71.2126 30.0394 71.3936C29.6037 71.5745 29.1366 71.6677 28.6649 71.6677C28.1931 71.6677 27.726 71.5745 27.2903 71.3936C26.8547 71.2126 26.459 70.9474 26.1261 70.6132L26.1046 70.5881L26.0437 70.5272L25.8215 70.3014C24.5583 69.0002 23.316 67.679 22.0948 66.3383C19.0289 62.9788 16.0932 59.5028 13.2942 55.9179C10.0978 51.7971 6.82983 47.1388 4.34658 42.5378C1.91708 38.0263 0 33.1387 0 28.6667C0 12.4019 12.8713 0 28.6667 0C44.462 0 57.3333 12.4019 57.3333 28.6667C57.3333 33.1387 55.4163 38.0263 52.9868 42.5342C50.5035 47.1423 47.2391 51.7971 44.0392 55.9179C40.1239 60.9333 35.9421 65.7347 31.5118 70.3014L31.2897 70.5272L31.2287 70.5881L31.2072 70.6096L28.6667 68.0833ZM28.6667 39.4167C31.5177 39.4167 34.252 38.2841 36.2681 36.2681C38.2841 34.2521 39.4167 31.5177 39.4167 28.6667C39.4167 25.8156 38.2841 23.0813 36.2681 21.0653C34.252 19.0493 31.5177 17.9167 28.6667 17.9167C25.8156 17.9167 23.0813 19.0493 21.0653 21.0653C19.0493 23.0813 17.9167 25.8156 17.9167 28.6667C17.9167 31.5177 19.0493 34.2521 21.0653 36.2681C23.0813 38.2841 25.8156 39.4167 28.6667 39.4167Z" fill="#68D3FD"/>
<circle cx="29.4981" cy="29.3316" r="17.4981" fill="#68D3FD"/>
<path d="M23.3755 36.9935H19.0315V21.2255H15.5755V17.4335H23.3755V36.9935ZM34.6941 16.9055C36.1501 16.9055 37.4381 17.2975 38.5581 18.0815C39.6941 18.8495 40.5821 20.0095 41.2221 21.5615C41.8621 23.0975 42.1821 24.9775 42.1821 27.2015C42.1821 29.4255 41.8621 31.3055 41.2221 32.8415C40.5821 34.3775 39.6941 35.5295 38.5581 36.2975C37.4381 37.0815 36.1501 37.4735 34.6941 37.4735C33.2381 37.4735 31.9421 37.0815 30.8061 36.2975C29.6861 35.5295 28.8061 34.3775 28.1661 32.8415C27.5261 31.3055 27.2061 29.4255 27.2061 27.2015C27.2061 24.9775 27.5261 23.0975 28.1661 21.5615C28.8061 20.0095 29.6861 18.8495 30.8061 18.0815C31.9421 17.2975 33.2381 16.9055 34.6941 16.9055ZM34.6941 20.7215C33.6861 20.7215 32.8701 21.2655 32.2461 22.3535C31.6381 23.4415 31.3341 25.0575 31.3341 27.2015C31.3341 29.3295 31.6381 30.9375 32.2461 32.0255C32.8701 33.1135 33.6861 33.6575 34.6941 33.6575C35.7021 33.6575 36.5101 33.1135 37.1181 32.0255C37.7421 30.9375 38.0541 29.3295 38.0541 27.2015C38.0541 25.0575 37.7421 23.4415 37.1181 22.3535C36.5101 21.2655 35.7021 20.7215 34.6941 20.7215Z" fill="white"/>
</svg>
