<svg width="58" height="72" viewBox="0 0 58 72" fill="none" xmlns="http://www.w3.org/2000/svg">
<path fill-rule="evenodd" clip-rule="evenodd" d="M28.6667 68.2498L31.2037 70.7797C30.8707 71.1139 30.4751 71.3791 30.0394 71.5601C29.6037 71.7411 29.1366 71.8342 28.6649 71.8342C28.1931 71.8342 27.726 71.7411 27.2903 71.5601C26.8547 71.3791 26.459 71.1139 26.1261 70.7797L26.1046 70.7546L26.0437 70.6937L25.8215 70.4679C24.5583 69.1667 23.316 67.8455 22.0948 66.5048C19.0289 63.1453 16.0932 59.6693 13.2942 56.0844C10.0978 51.9636 6.82983 47.3053 4.34658 42.7043C1.91708 38.1928 0 33.3052 0 28.8332C0 12.5684 12.8713 0.166504 28.6667 0.166504C44.462 0.166504 57.3333 12.5684 57.3333 28.8332C57.3333 33.3052 55.4163 38.1928 52.9868 42.7007C50.5035 47.3088 47.2391 51.9636 44.0392 56.0844C40.1239 61.0998 35.9421 65.9012 31.5118 70.4679L31.2897 70.6937L31.2287 70.7546L31.2072 70.7761L28.6667 68.2498ZM28.6667 39.5832C31.5177 39.5832 34.252 38.4506 36.2681 36.4346C38.2841 34.4186 39.4167 31.6842 39.4167 28.8332C39.4167 25.9821 38.2841 23.2478 36.2681 21.2318C34.252 19.2158 31.5177 18.0832 28.6667 18.0832C25.8156 18.0832 23.0813 19.2158 21.0653 21.2318C19.0493 23.2478 17.9167 25.9821 17.9167 28.8332C17.9167 31.6842 19.0493 34.4186 21.0653 36.4346C23.0813 38.4506 25.8156 39.5832 28.6667 39.5832Z" fill="white"/>
<circle cx="29.4981" cy="29.4981" r="17.4981" fill="white"/>
<path d="M31.8247 37.16H27.4807V21.392H24.0247V17.6H31.8247V37.16Z" fill="#68D3FD"/>
</svg>
