<svg width="58" height="73" viewBox="0 0 58 73" fill="none" xmlns="http://www.w3.org/2000/svg">
<path d="M26.777 70.0128L26.7564 69.9923L26.7507 69.9865L26.539 69.7714C26.5383 69.7706 26.5375 69.7698 26.5368 69.769C25.2818 68.4762 24.0474 67.1635 22.8342 65.8314L22.8335 65.8307C19.7852 62.4905 16.8664 59.0345 14.0834 55.4703C10.9048 51.3723 7.67353 46.7629 5.22682 42.2297C2.81955 37.7595 1 33.0516 1 28.8332C1 13.1314 13.4129 1.1665 28.6667 1.1665C43.9205 1.1665 56.3333 13.1314 56.3333 28.8332C56.3333 33.0517 54.5137 37.7598 52.1065 42.2262L52.1064 42.2263C49.6597 46.7668 46.4318 51.3727 43.2497 55.4706C39.3576 60.4563 35.2005 65.2293 30.7965 69.7691C30.7957 69.7699 30.7949 69.7708 30.7941 69.7716L30.5826 69.9865L30.5769 69.9923L30.5674 70.0018L29.5953 70.6608C29.2987 70.7754 28.9832 70.8342 28.6649 70.8342C28.3457 70.8342 28.0294 70.7751 27.7321 70.6599L26.777 70.0128ZM28.6667 40.5832C31.783 40.5832 34.7716 39.3452 36.9752 37.1417C39.1787 34.9381 40.4167 31.9495 40.4167 28.8332C40.4167 25.7169 39.1787 22.7282 36.9752 20.5247C34.7716 18.3211 31.783 17.0832 28.6667 17.0832C25.5504 17.0832 22.5617 18.3211 20.3582 20.5247C18.1546 22.7282 16.9167 25.7169 16.9167 28.8332C16.9167 31.9495 18.1546 34.9381 20.3582 37.1417C22.5617 39.3452 25.5504 40.5832 28.6667 40.5832Z" fill="#68D3FD" stroke="#68D3FD" stroke-width="2"/>
<circle cx="29.4981" cy="29.4981" r="17.4981" fill="#68D3FD"/>
<path d="M28.7241 17.072C30.1641 17.072 31.4041 17.336 32.4441 17.864C33.5001 18.392 34.3081 19.12 34.8681 20.048C35.4281 20.976 35.7081 22.032 35.7081 23.216C35.7081 23.92 35.5721 24.608 35.3001 25.28C35.0441 25.936 34.5961 26.688 33.9561 27.536C33.3321 28.368 32.4441 29.376 31.2921 30.56L28.4841 33.464H36.0921V37.16H22.1001V34.664L28.5081 28.064C29.6121 26.928 30.3721 26 30.7881 25.28C31.2041 24.544 31.4121 23.872 31.4121 23.264C31.4121 22.512 31.1881 21.928 30.7401 21.512C30.3081 21.08 29.6361 20.864 28.7241 20.864C27.8761 20.864 27.2041 21.152 26.7081 21.728C26.2281 22.304 25.9881 22.992 25.9881 23.792H21.6921C21.6921 22.528 21.9881 21.384 22.5801 20.36C23.1881 19.336 24.0201 18.536 25.0761 17.96C26.1481 17.368 27.3641 17.072 28.7241 17.072Z" fill="white"/>
</svg>
