<svg width="70" height="79" viewBox="0 0 70 79" fill="none" xmlns="http://www.w3.org/2000/svg">
<g filter="url(#filter0_d_614_2990)">
<mask id="path-1-inside-1_614_2990" fill="white">
<path fill-rule="evenodd" clip-rule="evenodd" d="M16.0483 0C9.39423 0 4 5.39423 4 12.0483V44.5789C4 51.233 9.39423 56.6272 16.0483 56.6272H27.5411L31.4865 68.2328C31.5401 68.3905 31.5739 68.5545 31.587 68.7206C31.784 71.2007 35.4286 71.2079 35.5908 68.7253C35.6019 68.556 35.6344 68.3887 35.6876 68.2276L39.5149 56.6272H53.3982C60.0523 56.6272 65.4465 51.233 65.4465 44.5789V12.0483C65.4465 5.39423 60.0523 0 53.3982 0H16.0483Z"/>
</mask>
<path fill-rule="evenodd" clip-rule="evenodd" d="M16.0483 0C9.39423 0 4 5.39423 4 12.0483V44.5789C4 51.233 9.39423 56.6272 16.0483 56.6272H27.5411L31.4865 68.2328C31.5401 68.3905 31.5739 68.5545 31.587 68.7206C31.784 71.2007 35.4286 71.2079 35.5908 68.7253C35.6019 68.556 35.6344 68.3887 35.6876 68.2276L39.5149 56.6272H53.3982C60.0523 56.6272 65.4465 51.233 65.4465 44.5789V12.0483C65.4465 5.39423 60.0523 0 53.3982 0H16.0483Z" fill="white"/>
<path d="M27.5411 56.6272L29.4347 55.9835L28.9736 54.6272H27.5411V56.6272ZM31.4865 68.2328L29.5929 68.8765L29.5929 68.8766L31.4865 68.2328ZM31.587 68.7206L33.5808 68.5623L33.5808 68.5623L31.587 68.7206ZM35.5908 68.7253L37.5866 68.8557L37.5866 68.8557L35.5908 68.7253ZM35.6876 68.2276L37.5869 68.8542L37.5869 68.8542L35.6876 68.2276ZM39.5149 56.6272V54.6272H38.0687L37.6156 56.0006L39.5149 56.6272ZM6 12.0483C6 6.49879 10.4988 2 16.0483 2V-2C8.28966 -2 2 4.28966 2 12.0483H6ZM6 44.5789V12.0483H2V44.5789H6ZM16.0483 54.6272C10.4988 54.6272 6 50.1284 6 44.5789H2C2 52.3375 8.28966 58.6272 16.0483 58.6272V54.6272ZM27.5411 54.6272H16.0483V58.6272H27.5411V54.6272ZM33.38 67.5891L29.4347 55.9835L25.6476 57.2709L29.5929 68.8765L33.38 67.5891ZM33.5808 68.5623C33.5545 68.2312 33.4871 67.9041 33.38 67.5891L29.5929 68.8766C29.593 68.8769 29.5932 68.8779 29.5933 68.8789L33.5808 68.5623ZM33.5951 68.5949C33.5929 68.6281 33.5887 68.6468 33.5869 68.6534C33.5852 68.66 33.5852 68.6578 33.5893 68.6496C33.5933 68.6413 33.5998 68.6307 33.6088 68.6193C33.6177 68.608 33.6271 68.5986 33.6358 68.5912C33.6534 68.5764 33.6625 68.5746 33.6554 68.5771C33.6519 68.5782 33.6456 68.5801 33.6365 68.5816C33.6273 68.5831 33.6167 68.584 33.6051 68.584C33.5935 68.584 33.5823 68.583 33.5723 68.5813C33.5622 68.5796 33.5544 68.5775 33.5492 68.5757C33.5385 68.572 33.5426 68.5714 33.555 68.5818C33.5613 68.587 33.5684 68.594 33.5753 68.6026C33.5823 68.6114 33.5872 68.6194 33.5902 68.6252C33.5932 68.631 33.5924 68.6311 33.5902 68.6232C33.588 68.6151 33.5834 68.5956 33.5808 68.5623L29.5933 68.8788C29.7884 71.3358 31.7896 72.5812 33.5988 72.584C35.4153 72.5868 37.4247 71.3338 37.5866 68.8557L33.5951 68.5949ZM33.7883 67.6009C33.6821 67.9228 33.6172 68.2567 33.5951 68.5949L37.5866 68.8557C37.5866 68.8552 37.5867 68.8547 37.5869 68.8542L33.7883 67.6009ZM37.6156 56.0006L33.7883 67.6009L37.5869 68.8542L41.4142 57.2538L37.6156 56.0006ZM53.3982 54.6272H39.5149V58.6272H53.3982V54.6272ZM63.4465 44.5789C63.4465 50.1284 58.9477 54.6272 53.3982 54.6272V58.6272C61.1569 58.6272 67.4465 52.3375 67.4465 44.5789H63.4465ZM63.4465 12.0483V44.5789H67.4465V12.0483H63.4465ZM53.3982 2C58.9477 2 63.4465 6.4988 63.4465 12.0483H67.4465C67.4465 4.28966 61.1569 -2 53.3982 -2V2ZM16.0483 2H53.3982V-2H16.0483V2Z" fill="white" mask="url(#path-1-inside-1_614_2990)"/>
</g>
<path d="M36.0983 35.224H27.3143V31.624L34.8743 19.6H40.2263V31.624H42.7943V35.224H40.2263V39.16H36.0983V35.224ZM36.0983 31.624V24.088L31.4903 31.624H36.0983Z" fill="#009EDC"/>
<defs>
<filter id="filter0_d_614_2990" x="0" y="0" width="69.4465" height="78.584" filterUnits="userSpaceOnUse" color-interpolation-filters="sRGB">
<feFlood flood-opacity="0" result="BackgroundImageFix"/>
<feColorMatrix in="SourceAlpha" type="matrix" values="0 0 0 0 0 0 0 0 0 0 0 0 0 0 0 0 0 0 127 0" result="hardAlpha"/>
<feOffset dy="4"/>
<feGaussianBlur stdDeviation="2"/>
<feComposite in2="hardAlpha" operator="out"/>
<feColorMatrix type="matrix" values="0 0 0 0 0 0 0 0 0 0 0 0 0 0 0 0 0 0 0.25 0"/>
<feBlend mode="normal" in2="BackgroundImageFix" result="effect1_dropShadow_614_2990"/>
<feBlend mode="normal" in="SourceGraphic" in2="effect1_dropShadow_614_2990" result="shape"/>
</filter>
</defs>
</svg>
