<svg width="58" height="73" viewBox="0 0 58 73" fill="none" xmlns="http://www.w3.org/2000/svg">
<path d="M26.777 69.8463L26.7564 69.8258L26.7507 69.82L26.539 69.6049C26.5383 69.6041 26.5375 69.6033 26.5368 69.6025C25.2818 68.3097 24.0474 66.997 22.8342 65.6649L22.8335 65.6642C19.7852 62.324 16.8664 58.868 14.0834 55.3038C10.9048 51.2058 7.67353 46.5964 5.22682 42.0632C2.81955 37.593 1 32.8851 1 28.6667C1 12.9649 13.4129 1 28.6667 1C43.9205 1 56.3333 12.9649 56.3333 28.6667C56.3333 32.8852 54.5137 37.5932 52.1065 42.0597L52.1064 42.0598C49.6597 46.6003 46.4318 51.2062 43.2497 55.3041C39.3576 60.2898 35.2005 65.0628 30.7965 69.6026C30.7957 69.6034 30.7949 69.6043 30.7941 69.6051L30.5826 69.82L30.5769 69.8258L30.5674 69.8353L29.5953 70.4943C29.2987 70.6089 28.9832 70.6677 28.6649 70.6677C28.3457 70.6677 28.0294 70.6086 27.7321 70.4934L26.777 69.8463ZM28.6667 40.4167C31.783 40.4167 34.7716 39.1787 36.9752 36.9752C39.1787 34.7716 40.4167 31.783 40.4167 28.6667C40.4167 25.5504 39.1787 22.5617 36.9752 20.3582C34.7716 18.1546 31.783 16.9167 28.6667 16.9167C25.5504 16.9167 22.5617 18.1546 20.3582 20.3582C18.1546 22.5617 16.9167 25.5504 16.9167 28.6667C16.9167 31.783 18.1546 34.7716 20.3582 36.9752C22.5617 39.1787 25.5504 40.4167 28.6667 40.4167Z" fill="#68D3FD" stroke="#68D3FD" stroke-width="2"/>
<circle cx="29.4981" cy="29.3316" r="17.4981" fill="#68D3FD"/>
<path d="M28.9407 30.3695C28.7807 30.4335 28.5967 30.4655 28.3887 30.4655C27.1247 30.4655 25.9567 30.1855 24.8847 29.6255C23.8287 29.0655 22.9887 28.2815 22.3647 27.2735C21.7407 26.2655 21.4287 25.1215 21.4287 23.8415C21.4287 22.4815 21.7567 21.2815 22.4127 20.2415C23.0847 19.2015 23.9807 18.4015 25.1007 17.8415C26.2367 17.2655 27.4847 16.9775 28.8447 16.9775C30.2047 16.9775 31.4447 17.2655 32.5647 17.8415C33.7007 18.4015 34.5967 19.2015 35.2527 20.2415C35.9247 21.2655 36.2607 22.4575 36.2607 23.8175C36.2607 24.7135 36.1167 25.5615 35.8287 26.3615C35.5407 27.1455 35.0927 28.0255 34.4847 29.0015L29.4447 36.9935H24.5007L28.9407 30.3695ZM28.8447 26.9135C29.8047 26.9135 30.5727 26.6175 31.1487 26.0255C31.7247 25.4335 32.0127 24.6895 32.0127 23.7935C32.0127 22.8975 31.7247 22.1535 31.1487 21.5615C30.5727 20.9695 29.8047 20.6735 28.8447 20.6735C27.8847 20.6735 27.1167 20.9695 26.5407 21.5615C25.9647 22.1535 25.6767 22.8975 25.6767 23.7935C25.6767 24.6895 25.9647 25.4335 26.5407 26.0255C27.1167 26.6175 27.8847 26.9135 28.8447 26.9135Z" fill="white"/>
</svg>
