<svg width="58" height="72" viewBox="0 0 58 72" fill="none" xmlns="http://www.w3.org/2000/svg">
<path d="M28.6657 68.2488L27.2555 66.8326L26.1545 67.9289C25.2839 67.015 24.4235 66.0913 23.5735 65.158L23.5721 65.1566C20.5414 61.8357 17.6394 58.3996 14.8724 54.856C11.7117 50.7809 8.51719 46.2206 6.10705 41.7552C3.72202 37.3262 2 32.798 2 28.8332C2 13.6944 13.9544 2.1665 28.6667 2.1665C43.3789 2.1665 55.3333 13.6944 55.3333 28.8332C55.3333 32.7982 53.6111 37.3267 51.2262 41.7518L51.2261 41.7519C48.816 46.2244 45.6248 50.7813 42.4608 54.8561C38.9167 59.3959 35.1516 63.7584 31.1794 67.9279L30.0789 66.8336L30.0769 66.8316L28.6657 68.2488ZM28.6667 41.5832C32.0482 41.5832 35.2912 40.2399 37.6823 37.8488C40.0734 35.4577 41.4167 32.2147 41.4167 28.8332C41.4167 25.4517 40.0734 22.2087 37.6823 19.8176C35.2912 17.4265 32.0482 16.0832 28.6667 16.0832C25.2852 16.0832 22.0421 17.4265 19.6511 19.8176C17.26 22.2087 15.9167 25.4517 15.9167 28.8332C15.9167 32.2147 17.26 35.4577 19.6511 37.8488C22.0421 40.2399 25.2852 41.5832 28.6667 41.5832Z" fill="#68D3FD" stroke="#009EDC" stroke-width="4"/>
<circle cx="29.4981" cy="29.4981" r="17.4981" fill="#68D3FD"/>
<path d="M28.7241 17.072C30.1641 17.072 31.4041 17.336 32.4441 17.864C33.5001 18.392 34.3081 19.12 34.8681 20.048C35.4281 20.976 35.7081 22.032 35.7081 23.216C35.7081 23.92 35.5721 24.608 35.3001 25.28C35.0441 25.936 34.5961 26.688 33.9561 27.536C33.3321 28.368 32.4441 29.376 31.2921 30.56L28.4841 33.464H36.0921V37.16H22.1001V34.664L28.5081 28.064C29.6121 26.928 30.3721 26 30.7881 25.28C31.2041 24.544 31.4121 23.872 31.4121 23.264C31.4121 22.512 31.1881 21.928 30.7401 21.512C30.3081 21.08 29.6361 20.864 28.7241 20.864C27.8761 20.864 27.2041 21.152 26.7081 21.728C26.2281 22.304 25.9881 22.992 25.9881 23.792H21.6921C21.6921 22.528 21.9881 21.384 22.5801 20.36C23.1881 19.336 24.0201 18.536 25.0761 17.96C26.1481 17.368 27.3641 17.072 28.7241 17.072Z" fill="white"/>
</svg>
