<svg width="58" height="73" viewBox="0 0 58 73" fill="none" xmlns="http://www.w3.org/2000/svg">
<path d="M26.777 69.8463L26.7564 69.8258L26.7507 69.82L26.539 69.6049C26.5383 69.6041 26.5375 69.6033 26.5368 69.6025C25.2818 68.3097 24.0474 66.997 22.8342 65.6649L22.8335 65.6642C19.7852 62.324 16.8664 58.868 14.0834 55.3038C10.9048 51.2058 7.67353 46.5964 5.22682 42.0632C2.81955 37.593 1 32.8851 1 28.6667C1 12.9649 13.4129 1 28.6667 1C43.9205 1 56.3333 12.9649 56.3333 28.6667C56.3333 32.8852 54.5137 37.5932 52.1065 42.0597L52.1064 42.0598C49.6597 46.6003 46.4318 51.2062 43.2497 55.3041C39.3576 60.2898 35.2005 65.0628 30.7965 69.6026C30.7957 69.6034 30.7949 69.6043 30.7941 69.6051L30.5826 69.82L30.5769 69.8258L30.5674 69.8353L29.5953 70.4943C29.2987 70.6089 28.9832 70.6677 28.6649 70.6677C28.3457 70.6677 28.0294 70.6086 27.7321 70.4934L26.777 69.8463ZM28.6667 40.4167C31.783 40.4167 34.7716 39.1787 36.9752 36.9752C39.1787 34.7716 40.4167 31.783 40.4167 28.6667C40.4167 25.5504 39.1787 22.5617 36.9752 20.3582C34.7716 18.1546 31.783 16.9167 28.6667 16.9167C25.5504 16.9167 22.5617 18.1546 20.3582 20.3582C18.1546 22.5617 16.9167 25.5504 16.9167 28.6667C16.9167 31.783 18.1546 34.7716 20.3582 36.9752C22.5617 39.1787 25.5504 40.4167 28.6667 40.4167Z" fill="#68D3FD" stroke="#68D3FD" stroke-width="2"/>
<circle cx="29.4981" cy="29.3316" r="17.4981" fill="#68D3FD"/>
<path d="M28.7498 16.9055C30.0938 16.9055 31.2858 17.1535 32.3258 17.6495C33.3658 18.1455 34.1738 18.8415 34.7498 19.7375C35.3258 20.6175 35.6138 21.6335 35.6138 22.7855C35.6138 23.5055 35.4538 24.1695 35.1338 24.7775C34.8298 25.3855 34.4218 25.8815 33.9098 26.2655C33.4138 26.6495 32.8858 26.8895 32.3258 26.9855C32.9498 27.0815 33.5498 27.3215 34.1258 27.7055C34.7178 28.0895 35.1978 28.5935 35.5658 29.2175C35.9498 29.8415 36.1418 30.5535 36.1418 31.3535C36.1418 32.5855 35.8218 33.6655 35.1818 34.5935C34.5418 35.5055 33.6698 36.2095 32.5658 36.7055C31.4778 37.2175 30.2538 37.4735 28.8938 37.4735C26.7658 37.4735 25.0618 36.9215 23.7818 35.8175C22.5018 34.7135 21.7818 33.2095 21.6218 31.3055H25.9178C25.9978 32.1055 26.2858 32.7215 26.7818 33.1535C27.2938 33.5855 27.9978 33.8015 28.8938 33.8015C29.7898 33.8015 30.5098 33.5775 31.0538 33.1295C31.6138 32.6815 31.8938 32.0975 31.8938 31.3775C31.8938 30.5775 31.5818 29.9615 30.9578 29.5295C30.3498 29.0975 29.5258 28.8815 28.4858 28.8815H26.5418V25.3295H28.4858C29.3658 25.3295 30.0538 25.1135 30.5498 24.6815C31.0618 24.2335 31.3178 23.6335 31.3178 22.8815C31.3178 22.1615 31.0858 21.5935 30.6218 21.1775C30.1738 20.7615 29.5418 20.5535 28.7258 20.5535C27.9258 20.5535 27.3098 20.8255 26.8778 21.3695C26.4458 21.9135 26.2298 22.5615 26.2298 23.3135H21.9338C21.9338 22.0815 22.2218 20.9855 22.7978 20.0255C23.3738 19.0495 24.1818 18.2895 25.2218 17.7455C26.2618 17.1855 27.4378 16.9055 28.7498 16.9055Z" fill="white"/>
</svg>
