<svg width="58" height="73" viewBox="0 0 58 73" fill="none" xmlns="http://www.w3.org/2000/svg">
<path d="M26.777 69.8463L26.7564 69.8258L26.7507 69.82L26.539 69.6049C26.5383 69.6041 26.5375 69.6033 26.5368 69.6025C25.2818 68.3097 24.0474 66.997 22.8342 65.6649L22.8335 65.6642C19.7852 62.324 16.8664 58.868 14.0834 55.3038C10.9048 51.2058 7.67353 46.5964 5.22682 42.0632C2.81955 37.593 1 32.8851 1 28.6667C1 12.9649 13.4129 1 28.6667 1C43.9205 1 56.3333 12.9649 56.3333 28.6667C56.3333 32.8852 54.5137 37.5932 52.1065 42.0597L52.1064 42.0598C49.6597 46.6003 46.4318 51.2062 43.2497 55.3041C39.3576 60.2898 35.2005 65.0628 30.7965 69.6026C30.7957 69.6034 30.7949 69.6043 30.7941 69.6051L30.5826 69.82L30.5769 69.8258L30.5674 69.8353L29.5953 70.4943C29.2987 70.6089 28.9832 70.6677 28.6649 70.6677C28.3457 70.6677 28.0294 70.6086 27.7321 70.4934L26.777 69.8463ZM28.6667 40.4167C31.783 40.4167 34.7716 39.1787 36.9752 36.9752C39.1787 34.7716 40.4167 31.783 40.4167 28.6667C40.4167 25.5504 39.1787 22.5617 36.9752 20.3582C34.7716 18.1546 31.783 16.9167 28.6667 16.9167C25.5504 16.9167 22.5617 18.1546 20.3582 20.3582C18.1546 22.5617 16.9167 25.5504 16.9167 28.6667C16.9167 31.783 18.1546 34.7716 20.3582 36.9752C22.5617 39.1787 25.5504 40.4167 28.6667 40.4167Z" fill="#68D3FD" stroke="#68D3FD" stroke-width="2"/>
<circle cx="29.4981" cy="29.3316" r="17.4981" fill="#68D3FD"/>
<path d="M28.9167 37.4495C26.8207 37.4495 25.1407 36.8975 23.8767 35.7935C22.6287 34.6895 21.9247 33.1855 21.7647 31.2815H26.0607C26.2367 32.9295 27.1887 33.7535 28.9167 33.7535C29.7967 33.7535 30.4927 33.4655 31.0047 32.8895C31.5167 32.2975 31.7727 31.5455 31.7727 30.6335C31.7727 29.7055 31.5087 28.9615 30.9807 28.4015C30.4687 27.8255 29.7567 27.5375 28.8447 27.5375C27.6447 27.5375 26.7247 27.9775 26.0847 28.8575H22.1247L22.7007 17.4335H35.0607V21.1535H26.6607L26.4447 24.8255C27.3567 24.2815 28.4047 24.0095 29.5887 24.0095C30.8687 24.0095 31.9887 24.2735 32.9487 24.8015C33.9247 25.3295 34.6767 26.0975 35.2047 27.1055C35.7487 28.0975 36.0207 29.2735 36.0207 30.6335C36.0207 31.9775 35.7087 33.1695 35.0847 34.2095C34.4767 35.2335 33.6287 36.0255 32.5407 36.5855C31.4687 37.1615 30.2607 37.4495 28.9167 37.4495Z" fill="white"/>
</svg>
