<svg width="872" height="306" viewBox="0 0 872 306" fill="none" xmlns="http://www.w3.org/2000/svg">
<path d="M342.902 188.723V157.611H318.533V188.723H298.691V120.624C298.691 114.171 303.411 110.8 308.612 110.8C313.814 110.8 318.533 114.171 318.533 120.624V140.852H342.902V120.624C342.902 114.171 347.622 110.8 352.823 110.8C358.025 110.8 362.744 114.171 362.744 120.624V188.723H342.902Z" fill="white"/>
<path d="M367.988 188.723L392.742 118.794C394.668 113.4 399.966 110.8 405.167 110.8C410.08 110.8 415.185 113.593 417.015 118.794L442.154 188.723L420.964 188.723L417.207 176.779H392.453L388.793 188.723H367.988ZM404.878 136.517L397.462 160.501L412.199 160.501L404.878 136.517Z" fill="white"/>
<path d="M508.955 137.48C508.955 146.631 504.139 153.662 497.301 157.997L515.601 188.723H493.833L479.385 162.813H467.056V188.723H447.31V126.404C447.31 115.327 450.778 111.185 462.336 111.185H480.059C496.723 111.185 508.955 119.083 508.955 136.325V137.48ZM467.056 130.545V146.535H479.578C486.031 146.535 489.402 142.393 489.402 137.48V136.806C489.402 131.894 486.031 127.752 479.578 127.752H469.849C467.634 127.752 467.056 128.234 467.056 130.545Z" fill="white"/>
<path d="M561.165 162.813V120.335C561.165 113.786 565.789 110.8 571.086 110.8C576.48 110.8 581.007 113.786 581.007 120.335V162.042C581.007 183.522 563.862 190.36 549.992 190.36C536.122 190.36 518.977 183.522 518.977 162.042V120.335C518.977 113.786 523.601 110.8 528.898 110.8C534.292 110.8 538.819 113.786 538.819 120.335V162.813C538.819 170.037 544.887 173.601 549.992 173.601C555.097 173.601 561.165 170.037 561.165 162.813Z" fill="white"/>
<path d="M631.878 185.255C628.218 185.255 622.535 183.81 621.572 180.536L611.843 145.379L607.413 188.723H589.208L597.299 120.624C597.877 114.749 603.078 111.378 607.413 110.992C612.036 110.607 618.489 112.534 620.223 118.891L631.878 163.005L643.533 118.891C645.266 112.534 651.72 110.607 656.343 110.992C660.678 111.378 665.879 114.749 666.457 120.624L674.548 188.723H656.343L652.009 145.09L642.184 180.536C641.221 183.81 635.538 185.255 631.878 185.255Z" fill="white"/>
<path d="M677.924 188.723L702.679 118.794C704.605 113.4 709.903 110.8 715.104 110.8C720.016 110.8 725.121 113.593 726.951 118.794L752.091 188.723H730.9L727.144 176.779H702.39L698.729 188.723H677.924ZM714.815 136.517L707.398 160.501H722.135L714.815 136.517Z" fill="white"/>
<path d="M787.847 188.723L767.812 188.723V128.234H753.075C747.489 128.234 745.273 123.61 745.273 119.661C745.273 115.712 747.392 111.378 753.075 111.378L802.584 111.378C808.267 111.378 810.386 115.712 810.386 119.661C810.386 123.61 808.17 128.234 802.584 128.234H787.847V188.723Z" fill="white"/>
<path d="M835.311 130.834V141.141H861.607C867.193 141.141 869.409 145.764 869.409 149.617C869.409 153.47 867.29 157.804 861.607 157.804H835.311V169.074C835.311 171.385 835.889 171.867 838.105 171.867H863.437C869.12 171.867 871.239 176.201 871.239 180.15C871.239 184.099 869.024 188.723 863.437 188.723H830.592C819.033 188.723 815.566 184.581 815.566 173.504V126.404C815.566 115.327 819.033 111.185 830.592 111.185H862.474C868.06 111.185 870.276 115.808 870.276 119.758C870.276 123.707 868.157 128.041 862.474 128.041H838.105C835.889 128.041 835.311 128.523 835.311 130.834Z" fill="white"/>
<path d="M315.271 230.937L315.503 232.658C312.343 233.3 309.595 233.454 304.74 233.454H302.942V223.36H313.114V225.055H305.023V231.733C309.595 231.733 312.24 231.579 315.271 230.937ZM312.472 242.906C315.862 242.906 317.968 241.879 317.968 240.183C317.968 238.488 315.862 237.461 312.472 237.461C309.056 237.461 306.949 238.488 306.949 240.183C306.949 241.879 309.056 242.906 312.472 242.906ZM312.472 235.766C317.121 235.766 320.049 237.409 320.049 240.183C320.049 242.957 317.121 244.601 312.472 244.601C307.797 244.601 304.869 242.957 304.869 240.183C304.869 237.409 307.797 235.766 312.472 235.766ZM319.818 227.572H323.208V229.319H319.818V235.303H317.686V221.587H319.818V227.572Z" fill="white"/>
<path d="M344.448 221.587V233.402H342.342V221.587H344.448ZM328.112 227.546C328.112 229.524 329.782 230.937 332.016 230.937C334.277 230.937 335.92 229.524 335.92 227.546C335.92 225.543 334.277 224.13 332.016 224.13C329.782 224.13 328.112 225.543 328.112 227.546ZM337.975 227.546C337.975 230.577 335.458 232.632 332.016 232.632C328.574 232.632 326.083 230.577 326.083 227.546C326.083 224.49 328.574 222.409 332.016 222.409C335.458 222.409 337.975 224.49 337.975 227.546ZM331.657 242.649H345.219V244.319H329.576V238.54H342.367V236.202H329.525V234.533H344.448V240.106H331.657V242.649Z" fill="white"/>
<path d="M357.719 229.961L372.052 229.37C372.103 228.163 372.103 227.058 372.103 226.005V225.543H358.336V223.822H374.184V226.005C374.184 228.83 374.184 231.99 373.208 236.716L371.127 236.459C371.564 234.404 371.795 232.606 371.949 231.014L358.027 231.759L357.719 229.961ZM366.067 239.772H376.675V241.493H355.844V239.772H363.961V233.788H366.067V239.772Z" fill="white"/>
<path d="M399.328 233.171L398.377 234.918C394.884 234.122 391.288 231.656 389.824 228.265C388.36 231.63 384.764 234.096 381.296 234.918L380.346 233.171C384.379 232.375 388.719 228.908 388.719 224.978V223.205H390.928V224.978C390.928 228.908 395.295 232.401 399.328 233.171ZM379.473 239.798H400.355V241.545H379.473V239.798Z" fill="white"/>
<path d="M419.232 225.62V223.745H405.721V222.255H421.312V227.058H407.853V229.036H421.723V230.551H405.773V225.62H419.232ZM407.725 240.671V242.803H422.108V244.319H405.644V239.207H419.309V237.281H405.593V235.766H421.389V240.671H407.725ZM403.101 232.298H423.984V233.891H403.101V232.298Z" fill="white"/>
<path d="M442.88 232.632V225.337H436.407V232.632H442.88ZM444.935 223.642V234.301H434.352V223.642H444.935ZM439.053 236.87V242.392H452.306V244.113H436.947V236.87H439.053ZM451.279 228.599H454.67V230.372H451.279V238.437H449.173V221.562H451.279V228.599Z" fill="white"/>
<path d="M475.396 227.649V229.344H459.805V222.358H475.164V224.053H461.911V227.649H475.396ZM461.654 240.338V242.701H475.884V244.344H459.599V238.771H473.11V236.562H459.522V234.918H475.19V240.338H461.654ZM457.031 231.194H477.887V232.914H457.031V231.194Z" fill="white"/>
<path d="M496.918 226.185V225.62H482.868V223.899H499.024V226.185C499.024 229.036 499.024 232.195 498.151 236.844L496.045 236.613C496.918 232.195 496.918 228.959 496.918 226.185ZM490.882 239.67H501.516V241.391H480.685V239.67H488.776V231.425H490.882V239.67Z" fill="white"/>
<path d="M527.065 224.721V224.464H513.451V222.769H529.145V224.721C529.145 226.57 529.145 228.445 528.503 230.808L526.448 230.577C527.065 228.214 527.065 226.519 527.065 224.721ZM521.285 242.957C524.907 242.957 527.219 241.981 527.219 240.389C527.219 238.745 524.907 237.769 521.285 237.769C517.689 237.769 515.378 238.745 515.378 240.389C515.378 241.981 517.689 242.957 521.285 242.957ZM521.285 236.151C526.191 236.151 529.325 237.718 529.325 240.389C529.325 243.009 526.191 244.601 521.285 244.601C516.379 244.601 513.271 243.009 513.271 240.389C513.271 237.718 516.379 236.151 521.285 236.151ZM521.619 232.324H531.739V234.019H511.011V232.324H519.513V227.906H521.619V232.324Z" fill="white"/>
<path d="M544.965 224.207C541.472 224.207 539.083 225.491 539.083 227.521C539.083 229.55 541.472 230.86 544.965 230.86C548.484 230.86 550.873 229.55 550.873 227.521C550.873 225.491 548.484 224.207 544.965 224.207ZM544.965 232.555C540.188 232.555 536.926 230.603 536.926 227.521C536.926 224.438 540.188 222.512 544.965 222.512C549.768 222.512 553.03 224.438 553.03 227.521C553.03 230.603 549.768 232.555 544.965 232.555ZM555.445 234.712V236.433H550V244.627H547.868V236.433H542.088V244.627H539.957V236.433H534.588V234.712H555.445Z" fill="white"/>
<path d="M564.972 237.743C567.078 237.743 568.594 236.254 568.594 234.199C568.594 232.118 567.078 230.628 564.972 230.628C562.892 230.628 561.376 232.118 561.376 234.199C561.376 236.254 562.892 237.743 564.972 237.743ZM564.972 228.882C568.26 228.882 570.597 231.091 570.597 234.199C570.597 237.332 568.26 239.49 564.972 239.49C561.736 239.49 559.398 237.332 559.398 234.199C559.398 231.091 561.736 228.882 564.972 228.882ZM566 221.87V225.286L571.676 225.286V226.981L558.088 226.981V225.286H563.893V221.87H566ZM579.741 231.065V232.837H575.965V244.627H573.859V221.613H575.965V231.065H579.741Z" fill="white"/>
<path d="M600.313 228.522V230.243H584.645V222.435H586.751V228.522H600.313ZM586.597 237.332V242.341H600.442V244.062H584.491V237.332H586.597ZM581.82 233.325H602.702V235.021H581.82V233.325Z" fill="white"/>
<path d="M615.151 223.822V237.024C618.465 237.024 621.881 236.742 625.605 235.997L625.862 237.743C621.932 238.54 618.413 238.796 614.894 238.796H613.071V223.822H615.151ZM633.568 230.783V232.529H629.869V244.627H627.763V221.587H629.869V230.783H633.568Z" fill="white"/>
<path d="M643.249 223.282C646.845 223.282 649.414 225.466 649.414 228.702C649.414 231.913 646.845 234.122 643.249 234.122C639.679 234.122 637.085 231.913 637.085 228.702C637.085 225.466 639.679 223.282 643.249 223.282ZM643.249 225.08C640.886 225.08 639.139 226.544 639.139 228.702C639.139 230.834 640.886 232.324 643.249 232.324C645.638 232.324 647.359 230.834 647.359 228.702C647.359 226.544 645.638 225.08 643.249 225.08ZM652.445 221.587H654.551V244.678H652.445V221.587ZM636.186 239.618L635.929 237.846C640.116 237.846 645.895 237.82 650.929 237.05L651.109 238.617C645.92 239.567 640.347 239.618 636.186 239.618Z" fill="white"/>
<path d="M673.704 236.767V225.928H668.875V236.767H673.704ZM679.072 230.269V222.101H681.076V243.471H679.072V232.015H675.656V238.437H666.897V224.258H675.656V230.269H679.072ZM683.644 221.587H685.648V244.601H683.644V221.587Z" fill="white"/>
<path d="M706.451 221.587H708.557V244.678H706.451V221.587ZM696.408 223.36C699.824 223.36 702.264 226.493 702.264 231.399C702.264 236.305 699.824 239.439 696.408 239.439C692.992 239.439 690.552 236.305 690.552 231.399C690.552 226.493 692.992 223.36 696.408 223.36ZM696.408 225.26C694.148 225.26 692.555 227.675 692.555 231.399C692.555 235.149 694.148 237.564 696.408 237.564C698.642 237.564 700.235 235.149 700.235 231.399C700.235 227.675 698.642 225.26 696.408 225.26Z" fill="white"/>
<path d="M731.826 234.019V235.714H716.004V223.591H731.595V225.286H718.136V228.702H731.081V230.372H718.136V234.019H731.826ZM713.307 239.927H734.215V241.647H713.307V239.927Z" fill="white"/>
<path d="M77.2132 106.147C72.6215 60.6516 124.885 50.7642 151.591 51.5075C193.32 24.4141 248.142 36.2343 270.336 45.531C326.035 77.0344 231.379 188.511 177.089 240.311C129.493 311.687 68.6372 269.743 44.1587 239.849C-2.89133 196.917 13.3715 173.879 27.3842 167.726C75.5236 161.294 80.6617 123.994 77.2132 106.147Z" fill="url(#paint0_linear_371_2484)"/>
<mask id="mask0_371_2484" style="mask-type:alpha" maskUnits="userSpaceOnUse" x="12" y="34" width="276" height="246">
<path d="M77.2123 106.147C72.6205 60.6516 124.884 50.7642 151.59 51.5075C193.319 24.4141 248.141 36.2343 270.335 45.531C326.034 77.0344 231.378 188.511 177.088 240.311C129.492 311.687 68.6362 269.743 44.1577 239.849C-2.8923 196.917 13.3705 173.879 27.3832 167.726C75.5227 161.294 80.6607 123.994 77.2123 106.147Z" fill="#77D7FD"/>
</mask>
<g mask="url(#mask0_371_2484)">
<path d="M129.959 187.242C101.443 273.879 137.24 302.278 158.75 303.865C181.857 306.245 191.881 300.298 204.937 289.588C242.366 240.758 206.985 202.316 190.802 184.862C211.943 180.102 214.156 152.129 208.625 133.683C203.709 113.447 194.49 103.336 185.272 105.716C177.897 108.692 173.184 126.746 172.979 133.093C167.448 131.904 164.375 131.309 158.844 133.093C158.844 111.671 151.469 105.722 147.167 105.126C139.178 104.02 125.044 122.18 120.127 132.494C102.919 161.531 121.15 181.291 129.959 187.242Z" fill="white"/>
</g>
<defs>
<linearGradient id="paint0_linear_371_2484" x1="170.014" y1="23.6426" x2="120.53" y2="281.643" gradientUnits="userSpaceOnUse">
<stop stop-color="#77D7FD"/>
<stop offset="0.9999" stop-color="#FFEDED"/>
<stop offset="1" stop-color="#77D7FD" stop-opacity="0"/>
</linearGradient>
</defs>
</svg>
