<svg width="872" height="306" viewBox="0 0 872 306" fill="none" xmlns="http://www.w3.org/2000/svg">
<path d="M342.902 188.724V157.612H318.533V188.724H298.691V120.625C298.691 114.172 303.411 110.801 308.612 110.801C313.814 110.801 318.533 114.172 318.533 120.625V140.853H342.902V120.625C342.902 114.172 347.622 110.801 352.823 110.801C358.025 110.801 362.744 114.172 362.744 120.625V188.724H342.902Z" fill="#262626"/>
<path d="M367.988 188.724L392.742 118.795C394.668 113.401 399.966 110.801 405.167 110.801C410.08 110.801 415.185 113.594 417.015 118.795L442.154 188.724L420.964 188.724L417.207 176.78H392.453L388.793 188.724H367.988ZM404.878 136.518L397.462 160.502L412.199 160.502L404.878 136.518Z" fill="#262626"/>
<path d="M508.955 137.481C508.955 146.632 504.139 153.663 497.301 157.998L515.601 188.724H493.833L479.385 162.814H467.056V188.724H447.31V126.404C447.31 115.328 450.778 111.186 462.336 111.186H480.059C496.723 111.186 508.955 119.084 508.955 136.325V137.481ZM467.056 130.546V146.535H479.578C486.031 146.535 489.402 142.394 489.402 137.481V136.807C489.402 131.895 486.031 127.753 479.578 127.753H469.849C467.634 127.753 467.056 128.235 467.056 130.546Z" fill="#262626"/>
<path d="M561.165 162.814V120.336C561.165 113.787 565.789 110.801 571.086 110.801C576.48 110.801 581.007 113.787 581.007 120.336V162.043C581.007 183.522 563.862 190.361 549.992 190.361C536.122 190.361 518.977 183.522 518.977 162.043V120.336C518.977 113.787 523.601 110.801 528.898 110.801C534.292 110.801 538.819 113.787 538.819 120.336V162.814C538.819 170.038 544.887 173.601 549.992 173.601C555.097 173.601 561.165 170.038 561.165 162.814Z" fill="#262626"/>
<path d="M631.878 185.256C628.218 185.256 622.535 183.811 621.572 180.536L611.843 145.38L607.413 188.724H589.208L597.299 120.625C597.877 114.75 603.078 111.379 607.413 110.993C612.036 110.608 618.489 112.534 620.223 118.892L631.878 163.006L643.533 118.892C645.266 112.534 651.72 110.608 656.343 110.993C660.678 111.379 665.879 114.75 666.457 120.625L674.548 188.724H656.343L652.009 145.091L642.184 180.536C641.221 183.811 635.538 185.256 631.878 185.256Z" fill="#262626"/>
<path d="M677.924 188.724L702.679 118.795C704.605 113.401 709.903 110.801 715.104 110.801C720.016 110.801 725.121 113.594 726.951 118.795L752.091 188.724H730.9L727.144 176.78H702.39L698.729 188.724H677.924ZM714.815 136.518L707.398 160.502H722.135L714.815 136.518Z" fill="#262626"/>
<path d="M787.847 188.724L767.812 188.724V128.235H753.075C747.489 128.235 745.273 123.611 745.273 119.662C745.273 115.713 747.392 111.379 753.075 111.379L802.584 111.379C808.267 111.379 810.386 115.713 810.386 119.662C810.386 123.611 808.17 128.235 802.584 128.235H787.847V188.724Z" fill="#262626"/>
<path d="M835.311 130.835V141.141H861.607C867.193 141.141 869.409 145.765 869.409 149.618C869.409 153.47 867.29 157.805 861.607 157.805H835.311V169.074C835.311 171.386 835.889 171.868 838.105 171.868H863.437C869.12 171.868 871.239 176.202 871.239 180.151C871.239 184.1 869.024 188.724 863.437 188.724H830.592C819.033 188.724 815.566 184.582 815.566 173.505V126.404C815.566 115.328 819.033 111.186 830.592 111.186H862.474C868.06 111.186 870.276 115.809 870.276 119.758C870.276 123.708 868.157 128.042 862.474 128.042H838.105C835.889 128.042 835.311 128.524 835.311 130.835Z" fill="#262626"/>
<path d="M315.271 230.938L315.503 232.659C312.343 233.301 309.595 233.455 304.74 233.455H302.942V223.361H313.114V225.056H305.023V231.734C309.595 231.734 312.24 231.58 315.271 230.938ZM312.472 242.907C315.862 242.907 317.968 241.88 317.968 240.184C317.968 238.489 315.862 237.462 312.472 237.462C309.056 237.462 306.949 238.489 306.949 240.184C306.949 241.88 309.056 242.907 312.472 242.907ZM312.472 235.767C317.121 235.767 320.049 237.41 320.049 240.184C320.049 242.959 317.121 244.602 312.472 244.602C307.797 244.602 304.869 242.959 304.869 240.184C304.869 237.41 307.797 235.767 312.472 235.767ZM319.818 227.573H323.208V229.32H319.818V235.304H317.686V221.588H319.818V227.573Z" fill="#D3D3D3"/>
<path d="M344.448 221.588V233.404H342.342V221.588H344.448ZM328.112 227.547C328.112 229.525 329.782 230.938 332.016 230.938C334.277 230.938 335.92 229.525 335.92 227.547C335.92 225.544 334.277 224.131 332.016 224.131C329.782 224.131 328.112 225.544 328.112 227.547ZM337.975 227.547C337.975 230.578 335.458 232.633 332.016 232.633C328.574 232.633 326.083 230.578 326.083 227.547C326.083 224.491 328.574 222.41 332.016 222.41C335.458 222.41 337.975 224.491 337.975 227.547ZM331.657 242.65H345.219V244.32H329.576V238.541H342.367V236.203H329.525V234.534H344.448V240.107H331.657V242.65Z" fill="#D3D3D3"/>
<path d="M357.719 229.962L372.052 229.371C372.103 228.164 372.103 227.059 372.103 226.006V225.544H358.336V223.823H374.184V226.006C374.184 228.832 374.184 231.991 373.208 236.717L371.127 236.46C371.564 234.405 371.795 232.607 371.949 231.015L358.027 231.76L357.719 229.962ZM366.067 239.774H376.675V241.494H355.844V239.774H363.961V233.789H366.067V239.774Z" fill="#D3D3D3"/>
<path d="M399.328 233.172L398.377 234.919C394.884 234.123 391.288 231.657 389.824 228.266C388.36 231.631 384.764 234.097 381.296 234.919L380.346 233.172C384.379 232.376 388.719 228.909 388.719 224.979V223.206H390.928V224.979C390.928 228.909 395.295 232.402 399.328 233.172ZM379.473 239.799H400.355V241.546H379.473V239.799Z" fill="#D3D3D3"/>
<path d="M419.232 225.621V223.746H405.721V222.256H421.312V227.059H407.853V229.037H421.723V230.552H405.773V225.621H419.232ZM407.725 240.673V242.804H422.108V244.32H405.644V239.208H419.309V237.282H405.593V235.767H421.389V240.673H407.725ZM403.101 232.299H423.984V233.892H403.101V232.299Z" fill="#D3D3D3"/>
<path d="M442.88 232.633V225.338H436.407V232.633H442.88ZM444.935 223.643V234.303H434.352V223.643H444.935ZM439.053 236.871V242.393H452.306V244.114H436.947V236.871H439.053ZM451.279 228.6H454.67V230.373H451.279V238.438H449.173V221.563H451.279V228.6Z" fill="#D3D3D3"/>
<path d="M475.396 227.65V229.345H459.805V222.359H475.164V224.054H461.911V227.65H475.396ZM461.654 240.339V242.702H475.884V244.346H459.599V238.772H473.11V236.563H459.522V234.919H475.19V240.339H461.654ZM457.031 231.195H477.887V232.916H457.031V231.195Z" fill="#D3D3D3"/>
<path d="M496.918 226.186V225.621H482.868V223.9H499.024V226.186C499.024 229.037 499.024 232.196 498.151 236.845L496.045 236.614C496.918 232.196 496.918 228.96 496.918 226.186ZM490.882 239.671H501.516V241.392H480.685V239.671H488.776V231.426H490.882V239.671Z" fill="#D3D3D3"/>
<path d="M527.065 224.722V224.465H513.451V222.77H529.145V224.722C529.145 226.571 529.145 228.446 528.503 230.809L526.448 230.578C527.065 228.215 527.065 226.52 527.065 224.722ZM521.285 242.959C524.907 242.959 527.219 241.982 527.219 240.39C527.219 238.746 524.907 237.77 521.285 237.77C517.689 237.77 515.378 238.746 515.378 240.39C515.378 241.982 517.689 242.959 521.285 242.959ZM521.285 236.152C526.191 236.152 529.325 237.719 529.325 240.39C529.325 243.01 526.191 244.602 521.285 244.602C516.379 244.602 513.271 243.01 513.271 240.39C513.271 237.719 516.379 236.152 521.285 236.152ZM521.619 232.325H531.739V234.02H511.011V232.325H519.513V227.907H521.619V232.325Z" fill="#D3D3D3"/>
<path d="M544.965 224.208C541.472 224.208 539.083 225.492 539.083 227.522C539.083 229.551 541.472 230.861 544.965 230.861C548.484 230.861 550.873 229.551 550.873 227.522C550.873 225.492 548.484 224.208 544.965 224.208ZM544.965 232.556C540.188 232.556 536.926 230.604 536.926 227.522C536.926 224.439 540.188 222.513 544.965 222.513C549.768 222.513 553.03 224.439 553.03 227.522C553.03 230.604 549.768 232.556 544.965 232.556ZM555.445 234.714V236.434H550V244.628H547.868V236.434H542.088V244.628H539.957V236.434H534.588V234.714H555.445Z" fill="#D3D3D3"/>
<path d="M564.972 237.744C567.078 237.744 568.594 236.255 568.594 234.2C568.594 232.119 567.078 230.63 564.972 230.63C562.892 230.63 561.376 232.119 561.376 234.2C561.376 236.255 562.892 237.744 564.972 237.744ZM564.972 228.883C568.26 228.883 570.597 231.092 570.597 234.2C570.597 237.333 568.26 239.491 564.972 239.491C561.736 239.491 559.398 237.333 559.398 234.2C559.398 231.092 561.736 228.883 564.972 228.883ZM566 221.871V225.287L571.676 225.287V226.982L558.088 226.982V225.287H563.893V221.871H566ZM579.741 231.066V232.838H575.965V244.628H573.859V221.614H575.965V231.066H579.741Z" fill="#D3D3D3"/>
<path d="M600.313 228.523V230.244H584.645V222.436H586.751V228.523H600.313ZM586.597 237.333V242.342H600.442V244.063H584.491V237.333H586.597ZM581.82 233.326H602.702V235.022H581.82V233.326Z" fill="#D3D3D3"/>
<path d="M615.151 223.823V237.025C618.465 237.025 621.881 236.743 625.605 235.998L625.862 237.744C621.932 238.541 618.413 238.797 614.894 238.797H613.071V223.823H615.151ZM633.568 230.784V232.53H629.869V244.628H627.763V221.588H629.869V230.784H633.568Z" fill="#D3D3D3"/>
<path d="M643.249 223.284C646.845 223.284 649.414 225.467 649.414 228.703C649.414 231.914 646.845 234.123 643.249 234.123C639.679 234.123 637.085 231.914 637.085 228.703C637.085 225.467 639.679 223.284 643.249 223.284ZM643.249 225.081C640.886 225.081 639.139 226.546 639.139 228.703C639.139 230.835 640.886 232.325 643.249 232.325C645.638 232.325 647.359 230.835 647.359 228.703C647.359 226.546 645.638 225.081 643.249 225.081ZM652.445 221.588H654.551V244.679H652.445V221.588ZM636.186 239.619L635.929 237.847C640.116 237.847 645.895 237.821 650.929 237.051L651.109 238.618C645.92 239.568 640.347 239.619 636.186 239.619Z" fill="#D3D3D3"/>
<path d="M673.704 236.768V225.929H668.875V236.768H673.704ZM679.072 230.27V222.102H681.076V243.472H679.072V232.017H675.656V238.438H666.897V224.26H675.656V230.27H679.072ZM683.644 221.588H685.648V244.602H683.644V221.588Z" fill="#D3D3D3"/>
<path d="M706.451 221.588H708.557V244.679H706.451V221.588ZM696.408 223.361C699.824 223.361 702.264 226.494 702.264 231.4C702.264 236.306 699.824 239.44 696.408 239.44C692.992 239.44 690.552 236.306 690.552 231.4C690.552 226.494 692.992 223.361 696.408 223.361ZM696.408 225.261C694.148 225.261 692.555 227.676 692.555 231.4C692.555 235.15 694.148 237.565 696.408 237.565C698.642 237.565 700.235 235.15 700.235 231.4C700.235 227.676 698.642 225.261 696.408 225.261Z" fill="#D3D3D3"/>
<path d="M731.826 234.02V235.715H716.004V223.592H731.595V225.287H718.136V228.703H731.081V230.373H718.136V234.02H731.826ZM713.307 239.928H734.215V241.649H713.307V239.928Z" fill="#D3D3D3"/>
<path d="M77.2132 106.147C72.6215 60.6516 124.885 50.7642 151.591 51.5075C193.32 24.4141 248.142 36.2343 270.336 45.531C326.035 77.0344 231.379 188.511 177.089 240.311C129.493 311.687 68.6372 269.743 44.1587 239.849C-2.89133 196.917 13.3715 173.879 27.3842 167.726C75.5236 161.294 80.6617 123.994 77.2132 106.147Z" fill="url(#paint0_linear_371_2474)"/>
<mask id="mask0_371_2474" style="mask-type:alpha" maskUnits="userSpaceOnUse" x="12" y="34" width="276" height="246">
<path d="M77.2123 106.147C72.6205 60.6516 124.884 50.7642 151.59 51.5075C193.319 24.4141 248.141 36.2343 270.335 45.531C326.034 77.0344 231.378 188.511 177.088 240.311C129.492 311.687 68.6362 269.743 44.1577 239.849C-2.8923 196.917 13.3705 173.879 27.3832 167.726C75.5227 161.294 80.6607 123.994 77.2123 106.147Z" fill="#77D7FD"/>
</mask>
<g mask="url(#mask0_371_2474)">
<path d="M129.959 187.242C101.443 273.879 137.24 302.278 158.75 303.865C181.857 306.245 191.881 300.298 204.937 289.588C242.366 240.758 206.985 202.316 190.802 184.862C211.943 180.102 214.156 152.129 208.625 133.683C203.709 113.447 194.49 103.336 185.272 105.716C177.897 108.692 173.184 126.746 172.979 133.093C167.448 131.904 164.375 131.309 158.844 133.093C158.844 111.671 151.469 105.722 147.167 105.126C139.178 104.02 125.044 122.18 120.127 132.494C102.919 161.531 121.15 181.291 129.959 187.242Z" fill="white"/>
</g>
<defs>
<linearGradient id="paint0_linear_371_2474" x1="170.014" y1="23.6426" x2="120.53" y2="281.643" gradientUnits="userSpaceOnUse">
<stop stop-color="#77D7FD"/>
<stop offset="0.9999" stop-color="#FFEDED"/>
<stop offset="1" stop-color="#77D7FD" stop-opacity="0"/>
</linearGradient>
</defs>
</svg>
